<?xml version="1.0" standalone="no"?>
<!DOCTYPE svg PUBLIC "-//W3C//DTD SVG 20010904//EN"
 "http://www.w3.org/TR/2001/REC-SVG-20010904/DTD/svg10.dtd">
<svg version="1.0" xmlns="http://www.w3.org/2000/svg"
 width="2851.000000pt" height="2851.000000pt" viewBox="0 0 2851.000000 2851.000000"
 preserveAspectRatio="xMidYMid meet">
<metadata>
Created by potrace 1.14, written by Peter Selinger 2001-2017
</metadata>
<g transform="translate(0.000000,2851.000000) scale(0.100000,-0.100000)"
fill="#000000" stroke="none">
<path d="M16000 17661 c0 -4 -19 -5 -41 -3 -32 3 -40 1 -34 -8 5 -8 4 -11 -1
-7 -13 8 -105 -13 -100 -22 3 -4 -5 -7 -17 -6 -30 3 -48 -5 -40 -18 3 -6 1 -7
-5 -3 -12 7 -56 -17 -47 -26 3 -2 -1 -5 -8 -5 -21 0 -67 -35 -60 -46 3 -6 1
-7 -6 -3 -15 10 -135 -110 -125 -126 4 -6 3 -8 -4 -4 -11 6 -52 -38 -52 -58 0
-6 -7 -24 -15 -40 -9 -16 -13 -36 -11 -43 3 -7 0 -12 -7 -10 -7 1 -11 -6 -11
-15 1 -10 -2 -15 -7 -12 -5 3 -9 -7 -10 -23 0 -15 -2 -80 -4 -143 -2 -63 -2
-122 2 -130 3 -8 5 -28 4 -44 -2 -18 1 -26 8 -22 7 5 8 1 5 -9 -7 -18 15 -67
27 -60 4 3 5 -4 2 -14 -6 -24 65 -129 137 -202 27 -28 50 -49 50 -45 0 3 12
-6 26 -19 15 -14 30 -22 35 -19 5 3 9 0 9 -5 0 -6 5 -11 10 -11 6 0 19 -9 31
-21 11 -11 27 -18 35 -15 8 3 14 1 14 -5 0 -6 7 -8 16 -5 8 3 13 2 10 -3 -3
-5 1 -12 10 -15 10 -4 13 -2 8 7 -4 6 2 4 14 -7 12 -10 28 -16 37 -12 10 3 13
2 10 -4 -4 -6 5 -10 22 -10 15 0 77 -3 137 -6 59 -3 106 -2 103 3 -3 4 9 9 26
10 18 1 42 3 55 4 12 1 22 5 22 10 0 5 3 8 8 7 16 -4 72 14 67 22 -3 4 4 6 14
3 11 -3 28 4 40 16 12 12 21 18 21 14 0 -5 6 -1 13 7 7 8 28 24 47 34 46 26
132 117 126 133 -3 7 -1 12 3 10 14 -4 52 46 46 60 -2 8 -1 12 4 8 13 -7 65
101 57 120 -3 8 0 15 5 15 6 0 9 9 6 20 -3 13 -1 18 6 13 6 -4 8 2 5 15 -4 12
-3 22 1 22 4 0 8 47 8 105 1 58 -2 103 -7 100 -4 -2 -5 7 -2 20 2 14 0 25 -7
25 -5 0 -8 7 -5 15 4 8 1 15 -6 15 -6 0 -9 4 -5 10 8 13 -5 61 -16 54 -5 -3
-6 2 -3 10 3 9 1 16 -4 16 -6 0 -12 10 -14 23 -2 12 -9 21 -15 20 -7 -2 -10 4
-6 12 3 9 -4 23 -16 34 -11 10 -21 22 -21 25 0 12 -27 35 -34 29 -3 -4 -6 1
-6 10 0 9 -5 17 -12 17 -6 0 -8 3 -5 7 9 9 -13 34 -24 27 -5 -3 -9 0 -9 6 0 6
-5 8 -10 5 -6 -4 -9 -1 -8 7 2 7 -3 12 -10 10 -8 -1 -11 2 -8 7 8 12 -41 44
-55 36 -5 -4 -8 -1 -7 7 2 7 -3 12 -9 11 -7 -2 -13 2 -13 8 0 5 -4 7 -10 4 -5
-3 -10 -2 -10 3 0 5 -8 12 -17 15 -10 4 -36 13 -57 21 -22 8 -44 12 -49 9 -6
-3 -7 -1 -3 6 6 8 -2 11 -28 8 -19 -2 -33 0 -30 4 6 10 -1 11 -113 14 -46 1
-83 -1 -83 -4z m135 -165 c17 0 32 -4 35 -7 3 -4 19 -8 35 -10 17 -2 35 -7 42
-12 7 -5 18 -5 24 -1 7 4 9 3 6 -3 -8 -13 20 -26 35 -16 6 3 8 1 5 -4 -8 -12
20 -26 34 -17 5 3 8 0 7 -8 -2 -7 3 -12 10 -10 8 1 11 -2 7 -8 -4 -7 2 -14 14
-17 12 -3 21 -10 21 -15 0 -5 5 -6 12 -2 7 4 8 3 4 -5 -4 -6 0 -14 8 -17 9 -3
14 -10 11 -14 -2 -4 4 -15 15 -25 11 -10 20 -14 21 -9 1 5 4 -2 8 -16 4 -14
13 -24 19 -23 6 2 9 -3 6 -11 -3 -8 0 -17 5 -21 6 -3 9 -11 6 -16 -4 -5 -1 -9
5 -9 6 0 9 -4 5 -10 -8 -14 6 -61 16 -54 6 3 7 -5 4 -19 -4 -14 -3 -27 2 -30
5 -3 7 -39 6 -79 -5 -104 -7 -117 -15 -111 -7 4 -12 -27 -11 -64 0 -7 -3 -11
-7 -10 -4 1 -8 -1 -9 -5 -1 -5 -11 -19 -22 -32 -12 -13 -21 -27 -20 -30 1 -3
-8 -15 -19 -26 -12 -12 -18 -25 -15 -30 3 -5 0 -12 -6 -16 -8 -5 -9 -3 -4 6 5
9 4 11 -3 6 -7 -4 -12 -13 -12 -19 0 -7 -10 -17 -22 -22 -13 -6 -22 -16 -21
-23 2 -7 -3 -11 -10 -9 -6 1 -11 -3 -10 -10 2 -7 -3 -10 -11 -7 -7 3 -22 -3
-31 -13 -10 -10 -20 -17 -22 -15 -8 6 -23 1 -19 -7 4 -5 -4 -7 -16 -3 -13 3
-19 1 -15 -5 5 -7 0 -9 -13 -6 -11 3 -20 1 -20 -4 0 -6 -12 -8 -26 -5 -15 3
-24 1 -21 -4 3 -5 -12 -8 -35 -6 -22 3 -38 0 -35 -4 3 -5 -10 -9 -29 -9 -19 0
-34 4 -34 9 0 4 -18 6 -40 4 -22 -2 -40 0 -40 5 0 5 -7 7 -15 3 -8 -3 -15 -1
-15 3 0 5 -11 8 -25 7 -13 -2 -22 0 -20 4 7 11 -24 22 -37 13 -6 -3 -8 -1 -5
4 8 12 -20 26 -34 17 -5 -3 -8 0 -7 8 2 7 -5 12 -14 12 -10 -1 -16 3 -15 10 1
6 -6 10 -15 10 -10 -1 -15 3 -12 8 3 5 -3 12 -15 15 -12 3 -21 10 -21 15 0 5
-5 6 -12 2 -7 -4 -8 -3 -4 4 8 13 -24 53 -36 46 -5 -3 -8 -2 -7 3 3 20 -2 34
-11 28 -6 -4 -10 -3 -9 2 3 20 -2 34 -11 28 -6 -4 -10 -3 -9 2 1 4 0 11 -1 16
-5 16 -8 28 -9 48 0 11 -5 18 -10 15 -5 -4 -7 4 -3 16 3 13 1 19 -5 15 -6 -4
-8 3 -5 18 2 14 0 25 -4 25 -5 0 -9 27 -9 60 0 33 3 60 6 60 4 0 6 18 5 39 0
22 2 37 7 34 4 -2 7 4 8 14 1 34 7 54 24 79 9 13 13 29 10 35 -4 5 -3 8 2 7 4
-2 10 2 12 7 2 6 11 15 19 21 8 6 12 16 8 23 -5 7 -2 10 5 9 7 -2 13 4 14 12
0 8 6 16 13 16 6 1 17 2 23 3 5 0 7 6 4 11 -3 6 1 10 9 10 9 0 16 4 16 9 0 5
9 11 21 14 12 3 18 10 14 16 -3 7 0 8 9 5 9 -3 16 -1 16 5 0 6 7 11 16 11 9 0
12 5 8 12 -4 6 -3 8 3 5 5 -3 27 3 49 13 22 11 64 22 94 25 30 3 55 7 57 9 2
2 20 1 41 -2 20 -3 51 -6 67 -6z"/>
<path d="M22872 17662 c-12 -2 -20 -7 -18 -11 3 -4 -5 -7 -17 -8 -12 -1 -33
-4 -47 -8 -14 -4 -37 -9 -52 -12 -15 -3 -25 -9 -22 -14 3 -5 -1 -6 -9 -3 -8 3
-21 -2 -30 -10 -9 -9 -20 -16 -26 -16 -6 0 -11 -4 -11 -9 0 -5 -9 -11 -21 -14
-13 -4 -18 -10 -13 -18 5 -8 3 -10 -5 -4 -8 5 -24 -4 -42 -24 -16 -18 -29 -29
-29 -25 0 3 -7 1 -15 -6 -8 -7 -12 -17 -8 -23 3 -5 1 -7 -5 -3 -5 3 -25 -13
-43 -36 -56 -73 -56 -73 -39 -63 8 4 5 -2 -8 -14 -12 -12 -20 -26 -17 -31 3
-4 -2 -11 -11 -14 -8 -3 -12 -10 -9 -16 3 -5 1 -10 -5 -10 -6 0 -9 -4 -5 -9 3
-5 0 -13 -6 -16 -5 -4 -8 -13 -5 -21 3 -7 0 -16 -5 -20 -6 -3 -9 -15 -6 -25 3
-12 1 -17 -5 -13 -7 5 -9 -2 -6 -19 3 -15 2 -24 -3 -22 -4 3 -6 -43 -4 -102 4
-151 4 -155 13 -149 5 3 8 -5 7 -17 -2 -28 26 -107 37 -101 4 3 5 -3 1 -12 -4
-10 -2 -15 4 -11 5 3 9 -4 9 -16 -1 -13 4 -21 12 -19 7 1 12 -5 10 -15 -2 -11
2 -17 10 -15 8 1 10 -2 7 -8 -4 -6 2 -19 12 -28 10 -9 26 -30 36 -45 10 -15
23 -25 29 -21 7 4 8 3 4 -5 -4 -6 0 -14 11 -18 10 -4 30 -19 44 -34 33 -35 97
-71 111 -63 6 4 8 3 5 -3 -8 -13 20 -26 35 -16 6 3 8 1 4 -5 -8 -13 29 -26 45
-16 7 4 9 3 6 -3 -8 -12 26 -23 54 -18 12 3 17 0 13 -7 -5 -7 5 -9 30 -6 20 2
36 1 36 -4 0 -4 41 -7 90 -7 50 0 88 3 86 7 -2 4 15 6 39 5 24 -1 47 2 50 7 4
6 11 8 16 5 5 -4 15 -3 22 2 6 4 17 8 22 9 6 1 28 10 50 20 41 18 48 21 66 23
5 0 7 6 4 11 -3 6 -2 10 3 10 5 0 9 41 9 90 0 50 -4 90 -8 90 -5 0 -9 -4 -9
-10 0 -5 -3 -9 -7 -9 -21 3 -33 -2 -27 -13 4 -7 3 -8 -4 -4 -7 4 -22 0 -34 -8
-12 -9 -31 -16 -41 -16 -11 0 -15 -4 -11 -12 4 -7 3 -8 -4 -4 -6 4 -22 1 -34
-5 -13 -7 -48 -14 -78 -16 -113 -7 -188 -8 -184 -1 3 4 -11 6 -31 4 -20 -1
-38 2 -42 6 -3 5 -11 7 -19 4 -8 -3 -17 1 -20 9 -4 8 -14 15 -23 15 -9 0 -25
7 -35 15 -10 8 -23 12 -29 8 -6 -3 -7 -1 -3 5 4 7 1 12 -8 12 -9 0 -16 5 -16
10 0 6 -7 10 -15 10 -8 0 -15 5 -15 11 0 6 -7 8 -16 5 -8 -3 -12 -2 -9 4 4 6
-4 14 -17 19 -13 4 -22 11 -20 15 3 8 -29 58 -43 68 -5 4 -10 12 -10 17 0 6
-9 17 -20 26 -11 9 -14 13 -6 10 9 -5 8 0 -4 18 -9 14 -16 28 -16 31 3 21 0
36 -6 33 -5 -3 -8 42 -8 99 0 57 3 104 8 104 4 0 7 12 7 28 0 46 3 62 13 62 5
0 6 7 3 16 -3 8 -2 13 3 9 5 -3 12 8 16 25 4 16 11 30 17 30 6 0 8 7 4 15 -3
8 0 14 7 12 7 -1 11 4 10 11 -2 6 3 11 10 10 6 -2 11 3 9 10 -1 8 2 11 7 8 10
-7 26 11 26 29 0 6 7 10 15 10 8 1 14 6 13 13 -2 7 0 11 5 10 15 -3 42 15 35
25 -3 5 -1 7 4 4 12 -8 66 17 57 26 -3 3 4 3 17 0 15 -4 20 -3 15 5 -5 8 -2
10 8 6 9 -3 16 -2 16 3 0 5 10 9 23 10 12 1 38 5 57 8 48 9 229 12 233 3 1 -4
13 -8 27 -10 14 -2 31 -7 38 -11 6 -5 16 -6 21 -2 5 3 12 1 16 -5 4 -6 11 -7
17 -4 6 4 13 3 17 -2 13 -18 51 -33 67 -27 11 4 15 2 11 -4 -4 -6 -1 -13 6
-16 11 -4 14 15 14 89 1 83 -1 94 -18 99 -10 4 -24 3 -30 -1 -7 -4 -9 -3 -5 4
8 13 -29 26 -45 16 -7 -4 -9 -3 -6 3 7 11 -47 27 -90 27 -12 0 -19 4 -16 9 3
5 -12 8 -35 5 -22 -2 -39 -1 -36 3 4 6 -173 7 -214 1z"/>
<path d="M1583 14310 l0 -3317 462 0 463 0 0 3317 0 3316 -463 0 -462 0 0
-3316z"/>
<path d="M9244 16122 c1 -827 -2 -1509 -6 -1515 -6 -9 -8 -8 -8 1 0 7 -5 10
-12 6 -6 -4 -8 -3 -5 3 7 12 -28 44 -39 35 -4 -4 -4 -2 -1 4 7 12 -50 61 -65
56 -4 -1 -7 4 -6 10 2 7 -3 12 -10 10 -6 -1 -11 4 -10 10 2 7 -3 12 -10 10 -6
-1 -11 4 -10 10 2 7 -3 12 -10 10 -6 -1 -11 4 -10 10 2 7 -3 12 -10 10 -8 -1
-11 2 -8 7 3 5 -7 17 -22 27 -15 9 -35 26 -44 37 -9 10 -22 16 -28 12 -6 -3
-9 -1 -8 7 2 7 -3 12 -10 10 -8 -1 -11 2 -7 8 4 7 -2 14 -14 17 -12 3 -21 10
-21 15 0 5 -5 6 -12 2 -7 -5 -8 -3 -4 5 5 8 0 14 -13 18 -11 3 -19 8 -17 12 3
4 -26 27 -62 51 -37 25 -73 50 -80 57 -8 7 -17 11 -22 8 -4 -3 -11 2 -14 11
-3 8 -10 12 -16 9 -5 -3 -10 -1 -10 4 0 6 -7 11 -15 11 -8 0 -15 4 -15 9 0 15
-69 53 -81 45 -8 -4 -9 -3 -5 4 6 11 -6 16 -19 10 -2 -2 -10 6 -18 16 -9 12
-19 16 -27 11 -8 -5 -11 -4 -7 2 8 12 -20 26 -34 17 -5 -3 -8 0 -7 8 2 7 -5
12 -14 12 -10 -1 -15 2 -12 7 5 8 0 10 -34 13 -7 1 -16 6 -20 11 -13 18 -53
36 -64 29 -7 -4 -8 -3 -4 4 7 12 -1 15 -37 15 -10 0 -15 2 -12 5 8 8 -66 43
-76 36 -5 -3 -9 -1 -9 4 0 6 -7 13 -16 16 -10 4 -13 2 -9 -7 4 -6 0 -4 -8 5
-8 10 -17 15 -20 11 -4 -3 -7 -1 -7 5 0 7 -3 11 -7 10 -5 -1 -21 4 -36 10 -16
7 -34 12 -42 12 -8 0 -16 4 -20 9 -3 6 -14 8 -25 6 -13 -3 -18 0 -14 7 5 7 1
9 -9 5 -10 -4 -17 -2 -17 4 0 6 -7 9 -15 5 -8 -3 -15 -1 -15 5 0 6 -4 8 -9 4
-5 -3 -12 -1 -16 4 -3 6 -13 7 -22 4 -10 -4 -14 -2 -10 4 4 6 -2 13 -13 16
-13 3 -18 1 -13 -6 3 -7 -3 -4 -14 6 -12 10 -30 17 -40 16 -10 -2 -29 3 -42
10 -19 11 -22 11 -15 -1 7 -11 5 -11 -9 0 -9 8 -22 10 -28 6 -8 -4 -9 -3 -5 5
5 8 0 10 -18 7 -17 -3 -24 -1 -20 6 5 7 -2 9 -19 6 -16 -3 -24 -1 -20 5 4 6
-4 8 -20 5 -15 -3 -24 -1 -21 3 3 5 -9 7 -25 5 -18 -2 -28 1 -25 6 4 6 -8 8
-30 5 -23 -3 -34 -1 -29 5 4 7 -6 9 -25 6 -17 -2 -33 -1 -34 3 -2 4 -25 9 -53
12 -27 2 -57 7 -65 10 -8 3 -28 6 -45 6 -16 0 -66 4 -110 7 -116 10 -496 14
-491 6 2 -4 -20 -6 -50 -4 -30 1 -54 -1 -54 -6 0 -5 -21 -7 -47 -6 -26 2 -52
0 -58 -4 -5 -3 -22 -5 -37 -3 -16 1 -28 -1 -28 -6 0 -4 -11 -9 -25 -10 -14 -1
-36 -3 -50 -4 -13 -1 -23 -5 -20 -9 2 -4 -7 -5 -20 -2 -14 2 -25 0 -25 -5 0
-5 -10 -9 -22 -10 -63 -1 -79 -4 -74 -12 4 -5 -8 -7 -25 -4 -21 3 -29 1 -24
-7 4 -7 -1 -9 -18 -5 -14 4 -28 2 -31 -4 -4 -5 -14 -7 -23 -4 -9 4 -14 2 -11
-3 3 -5 -10 -10 -30 -11 -20 -1 -38 -7 -40 -12 -2 -7 -15 -8 -29 -5 -18 5 -24
3 -19 -4 4 -7 -3 -9 -20 -6 -18 3 -23 1 -18 -7 4 -8 3 -9 -5 -5 -16 10 -53 -3
-45 -16 4 -7 2 -8 -5 -4 -14 9 -53 -2 -46 -14 3 -4 -5 -6 -17 -2 -13 3 -19 1
-15 -5 5 -7 -1 -9 -15 -5 -16 4 -19 2 -13 -8 5 -9 4 -11 -4 -6 -6 4 -17 3 -24
-2 -7 -6 -31 -15 -55 -21 -23 -7 -40 -16 -37 -21 3 -4 -4 -6 -15 -3 -11 3 -20
0 -20 -6 0 -6 -9 -11 -20 -11 -11 0 -20 -4 -20 -10 0 -5 -3 -10 -7 -9 -16 2
-53 -14 -53 -23 0 -5 -6 -8 -12 -6 -21 3 -59 -13 -53 -23 3 -5 -1 -6 -9 -3 -9
3 -16 1 -16 -6 0 -6 -4 -9 -9 -5 -5 3 -15 0 -23 -7 -7 -7 -20 -14 -28 -16 -8
-2 -20 -10 -27 -18 -6 -9 -15 -16 -20 -16 -23 -1 -53 -19 -48 -28 3 -6 -1 -7
-9 -4 -9 3 -16 1 -16 -5 0 -6 -6 -10 -12 -8 -7 1 -12 -4 -10 -11 1 -8 -2 -11
-7 -8 -12 8 -42 -4 -36 -13 2 -4 -1 -8 -8 -8 -18 0 -97 -54 -92 -63 3 -4 -3
-7 -13 -6 -9 0 -16 -4 -15 -11 2 -7 -4 -10 -12 -7 -8 4 -15 1 -15 -5 0 -6 -7
-11 -15 -11 -9 0 -18 -7 -21 -15 -4 -8 -12 -15 -19 -15 -7 0 -16 -7 -19 -16
-3 -8 -10 -13 -15 -10 -12 8 -33 -19 -23 -29 4 -5 2 -5 -5 -1 -15 8 -54 -24
-46 -37 4 -6 1 -7 -6 -3 -14 9 -53 -22 -45 -36 3 -5 -1 -8 -9 -6 -8 2 -36 -19
-62 -47 -27 -27 -44 -43 -40 -35 8 13 6 13 -8 1 -9 -7 -14 -18 -10 -24 3 -5 1
-7 -4 -4 -12 7 -36 -16 -28 -26 3 -4 2 -5 -1 -3 -4 3 -20 -7 -36 -22 -85 -78
-113 -106 -110 -115 1 -4 -2 -6 -8 -2 -5 3 -14 -4 -19 -17 -5 -13 -17 -30 -27
-38 -17 -13 -16 -12 1 10 l20 25 -22 -19 c-13 -11 -23 -23 -23 -29 0 -5 -11
-18 -25 -29 -14 -11 -25 -24 -25 -30 0 -6 -14 -24 -30 -40 -17 -16 -28 -33
-25 -39 4 -5 1 -8 -7 -7 -7 2 -12 -3 -11 -9 2 -7 -3 -12 -10 -10 -6 1 -11 -4
-10 -10 2 -7 -2 -13 -8 -13 -5 0 -7 -5 -3 -12 4 -7 3 -8 -4 -4 -13 8 -35 -28
-24 -39 4 -5 2 -5 -5 -1 -7 3 -14 -2 -18 -14 -3 -11 -11 -20 -17 -20 -5 0 -7
-8 -4 -17 4 -10 4 -14 0 -11 -10 10 -47 -40 -39 -52 4 -6 3 -9 -2 -8 -4 2 -8
0 -8 -4 0 -4 -9 -13 -19 -21 -11 -8 -16 -19 -12 -26 5 -7 2 -10 -6 -9 -7 2
-12 -5 -12 -14 1 -10 -2 -15 -7 -12 -5 2 -11 -7 -15 -21 -3 -14 -11 -25 -16
-25 -6 0 -7 -7 -4 -16 4 -10 2 -13 -6 -8 -8 5 -9 2 -5 -9 4 -10 2 -16 -6 -14
-7 1 -11 -6 -11 -15 1 -10 -2 -16 -6 -13 -4 2 -18 -17 -31 -43 -13 -26 -27
-48 -31 -50 -5 -2 -8 -9 -8 -16 0 -7 -6 -18 -12 -24 -7 -7 -13 -16 -14 -20 0
-4 -10 -28 -23 -54 -12 -26 -19 -52 -15 -59 5 -8 3 -9 -6 -4 -10 6 -12 4 -7
-9 4 -10 3 -15 -3 -11 -9 6 -14 -10 -13 -42 1 -7 -3 -11 -7 -8 -11 7 -32 -54
-23 -68 3 -6 1 -7 -5 -3 -7 4 -13 2 -13 -3 -3 -20 -5 -26 -23 -63 -10 -20 -14
-42 -10 -49 5 -8 3 -9 -6 -4 -10 6 -12 3 -8 -13 4 -14 2 -20 -5 -15 -6 4 -8
-2 -5 -15 4 -12 3 -22 -2 -22 -4 0 -11 -12 -15 -27 -5 -16 -10 -32 -11 -38 -2
-5 -5 -19 -6 -30 -2 -11 -7 -23 -12 -26 -5 -4 -9 -23 -10 -42 0 -19 -4 -33 -8
-31 -5 4 -17 -31 -23 -71 -1 -5 -3 -12 -4 -15 -2 -3 -4 -12 -6 -20 -2 -8 -7
-26 -11 -40 -3 -14 -7 -41 -8 -62 0 -20 -5 -34 -10 -31 -5 3 -7 -10 -4 -30 2
-20 0 -33 -5 -30 -6 3 -8 -10 -5 -30 2 -20 0 -33 -4 -31 -5 3 -7 -10 -5 -30 2
-19 0 -33 -4 -30 -5 2 -7 -11 -5 -31 1 -19 -1 -35 -6 -35 -4 0 -7 -24 -5 -54
1 -30 -2 -52 -7 -49 -4 3 -6 -15 -4 -41 3 -26 2 -49 -3 -51 -4 -3 -6 -112 -3
-243 5 -289 6 -302 13 -302 4 0 6 -22 5 -50 -1 -27 1 -50 5 -50 4 0 5 -16 3
-36 -3 -21 -1 -34 5 -31 5 3 8 -13 6 -38 -2 -24 1 -46 6 -49 5 -3 7 -15 4 -26
-3 -11 -1 -20 5 -20 6 0 8 -10 4 -22 -4 -16 -2 -19 8 -13 8 5 11 4 6 -3 -8
-13 4 -93 13 -87 4 2 6 -9 5 -26 -1 -16 2 -29 6 -29 4 0 6 -9 3 -20 -3 -11 -1
-20 4 -20 6 0 8 -11 5 -25 -2 -14 0 -25 6 -25 6 0 8 -10 4 -22 -3 -13 -1 -19
5 -15 6 4 11 1 10 -6 -1 -34 4 -48 15 -41 7 4 8 3 4 -5 -4 -6 -2 -19 6 -28 7
-9 12 -18 11 -20 -7 -9 -2 -33 6 -29 5 4 7 -4 3 -16 -3 -14 -1 -19 6 -14 8 5
10 2 6 -9 -4 -8 -2 -21 4 -28 6 -6 11 -15 11 -19 1 -5 1 -9 2 -10 0 -2 3 -14
5 -28 3 -14 9 -26 14 -28 5 -2 6 -10 3 -19 -4 -10 -2 -14 4 -10 6 4 10 -1 9
-11 -1 -16 31 -17 504 -18 278 -1 508 1 512 3 4 2 5 10 2 18 -4 8 -11 12 -17
8 -5 -3 -7 -1 -4 5 10 15 -3 43 -16 35 -5 -3 -7 -1 -4 5 10 15 -3 43 -16 35
-5 -3 -7 -1 -3 5 8 13 -24 83 -36 76 -4 -3 -5 3 -1 12 5 13 3 15 -7 9 -9 -5
-11 -4 -6 4 10 16 -13 73 -26 65 -6 -4 -7 2 -3 16 5 16 4 20 -5 15 -7 -4 -10
-2 -9 6 5 23 -12 60 -23 53 -6 -4 -8 1 -4 14 4 11 1 26 -7 33 -15 15 -17 21
-17 45 0 9 -5 12 -12 8 -6 -4 -8 -3 -5 3 9 14 -3 74 -13 68 -4 -2 -5 7 -2 22
4 19 2 24 -8 18 -8 -5 -11 -4 -7 2 9 14 -3 74 -13 68 -4 -2 -6 7 -4 20 1 14
-1 25 -6 25 -4 0 -6 10 -2 22 4 16 2 19 -8 13 -8 -5 -11 -4 -7 2 9 14 -3 104
-13 98 -3 -2 -6 6 -5 18 1 12 -2 38 -8 57 -5 19 -9 52 -9 73 1 20 -2 35 -6 33
-4 -2 -6 25 -5 60 1 35 -2 66 -5 68 -8 5 -7 164 2 186 3 8 4 52 3 97 -1 44 2
79 6 76 5 -3 7 15 4 40 -2 28 0 44 6 40 5 -3 8 13 6 40 -2 25 -1 43 3 41 4 -3
8 10 8 28 2 63 5 88 12 88 4 0 7 8 7 18 0 9 3 31 6 47 4 17 7 42 8 57 1 14 6
24 11 21 5 -4 7 4 4 15 -4 14 -2 20 4 16 7 -5 9 2 6 19 -3 16 -1 24 5 20 6 -4
8 2 5 15 -4 14 -2 20 5 15 6 -4 8 0 4 10 -3 9 -1 19 4 23 6 3 9 15 6 25 -3 11
-1 17 4 13 5 -3 9 1 9 9 0 8 7 28 16 46 9 18 17 43 18 56 0 13 5 21 10 17 5
-3 6 2 3 12 -4 9 -3 15 2 12 8 -5 26 42 21 53 -1 2 3 7 10 11 6 4 12 14 14 22
1 9 8 23 15 32 7 8 9 21 5 27 -4 7 -3 9 3 6 5 -3 17 7 27 24 9 16 15 29 12 29
-3 0 3 9 14 20 12 12 18 25 15 30 -4 6 -1 10 5 10 7 0 10 7 6 15 -3 8 0 14 7
12 7 -1 11 4 10 11 -2 6 2 12 8 12 6 0 8 7 5 16 -3 8 -2 12 4 9 6 -3 13 2 17
12 8 21 44 75 57 84 5 4 5 12 1 19 -5 8 -4 11 2 7 12 -8 36 17 26 26 -3 4 -1
7 6 7 7 0 9 5 6 10 -4 6 -1 9 7 8 7 -2 12 5 12 14 -1 10 3 16 8 15 5 -1 15 7
21 17 7 11 22 29 35 40 13 12 24 30 26 41 2 11 7 20 12 20 16 0 35 16 29 24
-2 5 9 19 25 31 17 13 30 29 30 37 0 8 5 11 10 8 9 -6 14 8 11 27 0 5 5 7 12
5 6 -1 11 4 10 10 -2 7 0 12 5 11 14 -4 53 23 47 33 -4 5 -2 8 3 7 5 -2 18 6
29 17 10 11 27 25 38 31 11 6 20 17 20 24 0 7 8 14 18 16 11 1 33 17 49 36 17
18 27 27 23 19 -5 -9 1 -7 19 4 14 9 23 22 19 28 -3 6 -1 7 5 3 7 -4 12 -2 12
3 0 6 6 10 13 8 6 -1 11 3 10 9 -1 7 5 11 15 10 9 0 16 5 15 11 -2 7 0 12 5
11 14 -3 62 22 62 32 0 6 4 9 9 6 5 -3 20 3 34 14 14 11 30 20 36 20 6 0 11 4
11 10 0 5 6 9 13 7 6 -1 11 4 9 11 -1 8 2 11 7 8 14 -9 42 5 34 17 -3 5 -1 7
5 4 14 -9 43 3 36 14 -3 5 3 6 12 2 13 -5 15 -3 9 7 -5 8 -4 11 2 7 13 -8 65
17 56 27 -4 4 0 4 10 0 10 -3 17 -1 17 5 0 6 3 10 8 10 21 -4 32 2 26 14 -4 6
-4 9 1 5 4 -4 24 0 44 8 37 16 56 22 79 23 7 1 11 5 8 10 -4 5 4 7 16 3 13 -3
19 -1 15 5 -5 7 0 9 13 6 11 -3 20 0 20 6 0 6 3 10 8 10 21 -4 43 2 38 10 -3
5 0 9 7 8 34 -1 58 4 53 12 -3 4 6 6 21 3 15 -3 24 -1 20 5 -3 5 6 8 24 5 16
-2 29 0 29 4 0 5 11 10 25 11 14 1 36 3 50 4 13 1 23 4 21 8 -2 3 12 7 32 8
21 1 49 2 65 3 15 1 25 4 23 8 -2 4 16 6 40 5 24 0 44 2 44 5 0 7 11 8 167 13
45 1 81 5 79 8 -2 3 40 6 95 6 54 0 99 -4 99 -8 0 -4 29 -7 64 -5 35 2 62 0
60 -3 -2 -4 12 -8 31 -9 19 -1 51 -2 70 -3 19 -1 35 -6 35 -11 0 -5 14 -6 30
-2 17 3 29 2 26 -3 -7 -10 82 -24 97 -14 6 3 7 1 3 -5 -7 -12 3 -14 61 -15 12
-1 20 -5 17 -9 -5 -7 19 -12 53 -11 7 1 10 -3 7 -8 -3 -5 4 -10 15 -10 22 -2
27 -3 51 -11 66 -22 84 -27 93 -21 6 3 7 1 3 -5 -4 -7 -3 -12 3 -12 5 0 22 -5
38 -12 15 -6 31 -11 36 -10 4 1 7 -3 7 -9 0 -5 5 -7 10 -4 6 3 10 1 10 -4 0
-6 6 -11 13 -11 7 0 32 -9 55 -20 24 -12 48 -18 54 -14 7 4 8 3 4 -4 -7 -11
-2 -13 32 -16 7 -1 16 -6 20 -11 13 -18 53 -36 64 -29 6 4 8 3 5 -3 -8 -12 20
-26 34 -17 5 3 8 0 7 -8 -2 -7 5 -12 14 -12 10 1 15 -2 12 -7 -5 -9 9 -13 34
-10 7 1 11 -4 10 -11 -2 -7 5 -12 15 -12 10 1 16 0 13 -3 -8 -8 77 -62 88 -56
5 3 6 1 2 -5 -3 -6 8 -21 26 -33 18 -13 36 -28 40 -34 4 -5 8 -6 8 -1 0 5 9
-1 19 -13 11 -13 25 -20 31 -16 6 3 9 1 8 -7 -2 -7 3 -12 10 -10 8 1 11 -2 8
-6 -3 -5 9 -20 26 -33 17 -13 52 -44 77 -69 25 -25 50 -44 56 -42 5 2 7 1 3
-3 -10 -10 24 -45 36 -38 6 3 8 3 4 -2 -9 -10 54 -75 66 -67 5 3 6 0 2 -6 -8
-13 38 -64 49 -54 5 4 5 2 1 -5 -8 -14 24 -54 36 -46 5 3 8 -3 6 -13 -2 -11 2
-18 9 -17 7 2 12 -3 10 -10 -1 -6 4 -11 11 -9 8 1 11 -2 7 -8 -6 -9 50 -91 68
-98 4 -2 5 -8 1 -13 -3 -5 0 -9 5 -9 6 0 11 -7 11 -16 0 -8 4 -13 9 -10 5 3 8
-2 7 -12 0 -9 5 -16 12 -14 8 1 11 -2 8 -7 -9 -14 5 -42 17 -34 6 3 7 1 3 -6
-4 -6 0 -18 8 -27 9 -8 16 -22 16 -30 0 -8 4 -13 9 -10 5 3 8 -2 7 -12 0 -9 5
-16 12 -14 8 1 11 -2 8 -7 -9 -14 5 -42 17 -34 5 3 7 1 4 -4 -4 -6 0 -24 8
-39 8 -16 15 -35 15 -42 0 -7 4 -10 10 -7 6 3 7 -1 4 -9 -3 -9 -1 -16 5 -16 6
0 10 -3 9 -7 -3 -17 15 -62 23 -57 5 3 6 -2 3 -10 -3 -9 -1 -16 5 -16 6 0 10
-3 10 -7 -4 -25 2 -53 11 -48 6 3 7 -1 4 -9 -3 -9 -1 -16 5 -16 6 0 8 -6 5
-14 -3 -8 -1 -17 5 -21 6 -3 11 -15 11 -26 0 -10 4 -19 9 -19 5 0 7 -10 3 -22
-3 -11 -1 -19 4 -16 5 4 10 -4 11 -15 1 -12 4 -31 7 -42 2 -11 5 -28 5 -38 1
-10 5 -16 10 -13 5 3 9 0 8 -7 -1 -37 4 -68 11 -64 4 3 8 -11 9 -31 4 -72 6
-82 12 -78 3 2 7 -15 8 -37 4 -74 5 -87 12 -83 3 2 6 -352 6 -787 l0 -792 461
-1 461 -1 -1 3316 -1 3316 -461 1 -461 0 1 -1504z"/>
<path d="M10963 17014 l0 -613 77 0 77 0 -1 246 c-1 135 2 250 6 256 3 6 39
11 80 12 114 3 130 4 124 14 -3 4 5 6 17 4 13 -3 29 2 35 10 7 8 22 13 32 10
11 -3 20 0 20 6 0 5 7 8 15 5 8 -4 15 -1 15 5 0 6 3 10 8 9 13 -2 42 14 37 22
-3 4 3 7 13 6 9 0 16 5 15 11 -2 7 3 12 10 10 6 -1 11 4 9 11 -1 8 2 11 7 7
12 -7 73 74 65 86 -3 5 0 9 7 9 6 0 9 8 6 20 -3 11 -2 18 3 15 10 -6 22 54 13
68 -3 6 -1 7 5 3 8 -5 12 5 12 33 0 23 -4 41 -10 41 -5 0 -6 7 -3 17 4 11 3
14 -5 9 -7 -4 -10 -2 -7 6 8 20 -21 93 -35 90 -6 -1 -9 2 -5 8 8 13 -14 42
-25 35 -4 -3 -10 5 -13 16 -4 15 -11 20 -22 15 -9 -3 -13 -2 -10 4 8 13 -71
64 -86 54 -8 -5 -9 -3 -4 6 6 10 4 12 -8 7 -10 -3 -17 -3 -17 2 0 9 -43 20
-92 24 -14 1 -25 4 -23 8 2 3 -74 5 -169 5 l-173 0 0 -612z m349 461 c15 1 29
-3 30 -7 2 -5 13 -10 26 -11 12 0 22 -5 22 -9 0 -4 7 -8 15 -8 8 0 15 -5 15
-11 0 -5 5 -7 10 -4 6 4 9 3 8 -2 -2 -5 7 -19 19 -32 12 -13 20 -28 17 -33 -3
-5 0 -15 6 -23 7 -8 9 -15 5 -15 -4 0 -2 -6 4 -13 6 -8 8 -17 4 -20 -3 -4 0
-14 8 -24 12 -14 12 -16 0 -8 -11 6 -13 2 -9 -18 3 -17 1 -24 -5 -20 -6 4 -8
0 -4 -10 3 -8 -1 -21 -9 -28 -8 -6 -12 -14 -9 -17 11 -11 -94 -80 -107 -70 -2
1 -14 -5 -28 -12 -14 -8 -45 -15 -70 -17 -25 -2 -56 -6 -70 -10 -46 -11 -62
-10 -67 5 -5 11 -8 327 -4 407 1 19 6 20 83 14 46 -3 95 -5 110 -4z"/>
<path d="M13203 17013 l0 -613 81 3 81 2 1 241 c1 133 4 249 7 258 5 13 11 15
26 7 10 -6 21 -7 25 -3 4 3 4 -1 1 -9 -3 -9 5 -27 20 -43 14 -15 25 -32 25
-37 0 -5 12 -22 28 -36 15 -15 22 -23 15 -19 -6 3 4 -18 24 -49 20 -30 40 -55
44 -55 5 0 8 -3 7 -7 -4 -11 144 -233 154 -233 5 0 6 -4 3 -10 -4 -6 29 -10
90 -9 69 0 95 4 92 12 -3 7 -10 11 -16 9 -7 -1 -10 2 -6 8 3 5 1 10 -6 10 -7
0 -9 3 -6 6 10 10 -13 45 -24 38 -6 -3 -9 2 -7 12 2 11 -2 18 -9 17 -7 -2 -10
4 -7 12 4 8 2 15 -4 15 -5 0 -12 9 -15 21 -3 12 -10 18 -16 14 -7 -3 -8 0 -5
9 3 9 2 16 -4 16 -5 0 -12 9 -15 21 -3 12 -10 18 -16 14 -7 -3 -8 0 -5 9 3 9
2 16 -4 16 -5 0 -12 9 -15 21 -4 13 -10 18 -18 13 -8 -4 -10 -3 -5 4 8 14 -23
64 -35 56 -5 -3 -6 2 -3 10 3 9 1 16 -5 16 -6 0 -11 7 -11 15 0 8 -4 15 -9 15
-5 0 -11 9 -14 21 -3 12 -10 18 -15 15 -5 -3 -9 2 -8 12 0 9 -4 16 -11 15 -7
-2 -10 4 -7 12 4 8 2 15 -4 15 -5 0 -12 9 -15 20 -3 11 -1 18 3 15 5 -3 26 2
47 11 36 15 57 21 76 23 5 1 5 5 2 11 -3 6 1 7 9 4 9 -3 16 -1 16 6 0 6 4 9 8
6 12 -7 53 24 47 35 -4 5 0 9 7 9 19 0 50 39 42 52 -5 7 -2 8 5 4 8 -5 14 0
18 13 3 12 10 21 15 21 6 0 8 11 6 25 -3 15 -1 22 5 18 6 -4 8 2 5 15 -4 12
-2 20 3 16 9 -5 10 -1 13 61 3 45 -32 168 -51 183 -9 6 -13 12 -7 12 5 0 0 7
-10 15 -11 8 -16 15 -12 15 4 0 1 7 -8 15 -8 8 -17 15 -20 15 -3 0 -15 9 -27
21 -11 11 -27 18 -35 15 -10 -4 -12 -2 -8 6 5 8 2 9 -10 5 -9 -4 -15 -3 -12 2
3 5 -4 11 -17 15 -12 3 -22 4 -23 3 0 -1 -8 4 -16 11 -9 7 -23 10 -32 6 -9 -4
-16 -1 -16 6 0 8 -9 11 -25 8 -13 -3 -22 -2 -20 2 2 4 -78 7 -179 7 l-183 -1
0 -613z m308 464 c25 -2 50 -7 56 -10 5 -4 20 -5 32 -2 12 2 19 0 16 -4 -2 -5
9 -14 25 -21 17 -7 30 -17 30 -22 0 -5 4 -7 9 -4 5 3 12 -1 15 -10 3 -8 11
-12 16 -9 6 4 10 3 9 -2 -1 -4 0 -11 1 -15 1 -5 4 -12 5 -18 1 -5 3 -11 5 -12
11 -14 17 -147 6 -141 -5 3 -7 0 -4 -7 2 -7 -8 -27 -24 -43 -15 -17 -24 -35
-21 -40 3 -6 1 -7 -5 -3 -7 4 -12 2 -12 -3 0 -6 -3 -10 -7 -9 -5 1 -18 -3 -29
-10 -12 -6 -24 -8 -28 -5 -3 3 -6 2 -6 -3 0 -5 -10 -10 -22 -10 -13 -1 -32 -4
-43 -7 -11 -3 -37 -6 -58 -6 -21 -1 -36 -4 -34 -8 3 -5 -14 -8 -36 -8 l-42 0
0 217 0 217 40 3 c22 2 45 2 50 1 6 -2 31 -4 56 -6z"/>
<path d="M18524 17159 c1 -258 -3 -469 -8 -469 -4 0 -6 -13 -4 -29 2 -17 1
-28 -4 -25 -7 5 -9 -1 -12 -38 -1 -7 -7 -17 -14 -21 -7 -5 -10 -12 -7 -18 4
-5 -1 -9 -9 -9 -9 0 -16 -5 -16 -11 0 -5 -4 -7 -10 -4 -5 3 -10 2 -10 -4 0 -6
-7 -8 -15 -5 -8 3 -20 2 -27 -2 -19 -12 -48 -12 -41 -1 4 6 -2 8 -15 5 -12 -3
-22 -3 -24 1 -2 5 -18 11 -37 15 -19 3 -32 3 -28 0 3 -3 -3 -16 -14 -27 -11
-12 -17 -27 -14 -35 3 -8 0 -10 -7 -6 -8 5 -9 2 -5 -9 3 -9 1 -19 -5 -23 -7
-5 -8 -2 -4 7 4 8 0 5 -8 -6 -9 -10 -15 -23 -13 -28 4 -13 79 -37 90 -30 6 3
7 1 3 -5 -8 -13 -6 -13 114 -13 91 -1 110 2 110 13 0 5 4 6 10 3 11 -7 62 24
56 34 -3 4 9 13 25 20 20 9 28 18 25 28 -3 8 -1 11 4 8 6 -3 10 1 10 9 0 9 5
16 11 16 6 0 9 9 6 20 -3 13 -1 18 6 13 6 -4 8 0 4 10 -4 10 -2 17 4 17 7 0 9
11 7 25 -3 15 -1 22 5 18 6 -4 8 2 5 15 -4 12 -3 22 1 22 5 0 8 222 7 492 l-1
493 -76 1 -76 2 1 -469z"/>
<path d="M20243 17014 l0 -612 343 0 343 1 -1 82 0 82 -259 -1 c-224 -1 -259
1 -260 14 -4 77 -3 385 2 398 6 15 31 17 261 16 l254 0 2 82 1 82 -262 -2
-262 -1 1 148 c1 81 4 151 8 154 3 3 120 7 258 7 l253 1 0 80 0 80 -341 1
-341 0 0 -612z"/>
<path d="M24753 17545 l-1 -82 136 -1 c76 0 144 -1 152 -1 13 -1 15 -66 14
-530 l-2 -530 78 1 78 0 -1 524 c0 288 3 527 6 530 4 4 71 7 151 7 l144 0 0
82 1 82 -378 0 -377 -1 -1 -81z"/>
<path d="M26473 14313 c0 -3043 1 -3313 16 -3317 9 -2 217 -4 462 -3 l446 0 0
3317 0 3317 -462 -1 -462 0 0 -3313z"/>
<path d="M22094 15661 c2 -3 -41 -5 -95 -4 -55 1 -98 -1 -95 -5 2 -4 -20 -6
-50 -5 -30 0 -54 -2 -54 -5 0 -4 -22 -6 -50 -5 -27 0 -50 -2 -50 -7 0 -4 -16
-5 -36 -3 -19 2 -33 0 -31 -4 5 -7 -20 -10 -101 -12 -13 -1 -21 -5 -18 -9 3
-5 -9 -6 -26 -4 -19 3 -28 1 -25 -5 4 -6 -7 -9 -29 -6 -20 2 -33 0 -30 -5 3
-5 -6 -7 -21 -4 -16 3 -24 1 -20 -5 4 -6 -4 -8 -20 -5 -16 3 -24 1 -20 -5 4
-6 1 -11 -6 -10 -39 1 -67 -4 -63 -12 4 -5 -4 -7 -16 -3 -13 3 -19 1 -15 -5 4
-6 -4 -8 -20 -5 -18 3 -24 1 -19 -6 5 -8 2 -10 -8 -6 -9 3 -16 1 -16 -6 0 -7
-8 -9 -21 -5 -13 4 -28 0 -41 -12 -12 -10 -18 -12 -14 -6 5 9 2 11 -8 7 -9 -3
-14 -10 -11 -15 3 -4 -4 -6 -15 -4 -11 2 -20 0 -20 -6 0 -5 -3 -8 -7 -8 -23 4
-43 -2 -38 -11 3 -6 -1 -7 -10 -4 -8 4 -23 0 -31 -7 -9 -8 -22 -14 -28 -15 -6
0 -17 -2 -24 -2 -8 -1 -10 -7 -6 -14 4 -7 4 -10 -1 -6 -4 4 -15 2 -23 -5 -13
-9 -14 -9 -8 0 5 9 2 11 -8 7 -9 -3 -13 -10 -10 -15 3 -5 -2 -6 -10 -3 -9 3
-16 1 -16 -5 0 -6 -7 -8 -17 -4 -12 5 -14 3 -8 -7 6 -10 4 -12 -8 -7 -9 3 -23
-1 -31 -9 -9 -8 -18 -15 -21 -14 -21 1 -25 -1 -20 -10 4 -6 -1 -7 -11 -3 -12
4 -15 3 -10 -5 5 -8 2 -10 -8 -6 -9 3 -16 1 -16 -5 0 -6 -3 -10 -7 -9 -17 4
-53 -14 -47 -24 4 -6 2 -8 -4 -5 -14 9 -43 -3 -36 -14 3 -5 -3 -9 -14 -9 -11
0 -30 -8 -43 -17 -36 -27 -61 -42 -87 -53 -13 -5 -20 -14 -17 -20 3 -5 0 -7
-8 -4 -8 3 -20 -2 -27 -11 -7 -8 -19 -15 -26 -15 -8 0 -14 -5 -14 -10 0 -6 -6
-9 -12 -8 -7 2 -12 -2 -11 -8 1 -7 -5 -11 -15 -10 -9 0 -16 -5 -14 -12 1 -8
-2 -11 -8 -7 -5 3 -10 1 -10 -4 0 -6 -6 -10 -12 -9 -7 2 -12 -3 -10 -10 1 -8
-1 -11 -6 -8 -13 8 -53 -24 -46 -36 4 -7 2 -8 -5 -4 -13 9 -44 -12 -36 -24 3
-4 -3 -7 -13 -6 -9 0 -16 -5 -14 -12 1 -8 -2 -11 -8 -7 -5 3 -10 1 -10 -5 0
-6 -4 -8 -10 -5 -5 3 -10 1 -10 -4 0 -6 -6 -11 -13 -11 -7 0 -19 -9 -27 -21
-8 -12 -25 -25 -38 -30 -13 -5 -20 -14 -17 -19 4 -6 1 -9 -7 -8 -7 2 -12 -3
-10 -10 1 -6 -4 -11 -10 -10 -7 2 -12 -3 -10 -10 1 -6 -4 -11 -10 -10 -7 2
-12 -3 -10 -9 1 -7 -5 -13 -13 -13 -8 0 -35 -20 -59 -45 -25 -25 -48 -45 -51
-45 -10 0 -185 -173 -185 -182 0 -4 -9 -17 -20 -28 -12 -12 -18 -26 -14 -32 4
-6 3 -8 -3 -5 -6 4 -17 -1 -24 -10 -12 -14 -12 -16 1 -9 8 4 6 0 -5 -9 -11 -9
-19 -21 -17 -26 1 -5 -4 -8 -10 -7 -7 2 -12 -5 -12 -14 1 -10 -3 -16 -8 -15
-5 1 -15 -7 -21 -18 -7 -10 -24 -33 -40 -50 -15 -16 -25 -36 -22 -42 2 -7 0
-12 -5 -10 -13 3 -81 -94 -73 -106 3 -6 1 -7 -5 -3 -14 8 -46 -39 -37 -54 4
-6 3 -9 -2 -8 -4 2 -9 -1 -10 -6 -1 -5 -5 -12 -10 -15 -16 -12 -34 -52 -27
-63 4 -7 3 -8 -4 -4 -11 7 -38 -38 -34 -56 1 -5 -2 -8 -8 -8 -8 0 -45 -65 -45
-81 0 -3 -8 -13 -17 -23 -21 -20 -23 -30 -5 -20 6 4 2 -3 -10 -15 -13 -12 -24
-26 -24 -31 -3 -19 -5 -25 -17 -46 -6 -12 -8 -24 -5 -28 3 -3 2 -6 -4 -6 -10
0 -28 -46 -25 -62 1 -5 -3 -8 -9 -8 -6 0 -9 -9 -6 -20 3 -11 1 -18 -3 -15 -12
7 -23 -32 -14 -46 4 -7 3 -9 -3 -6 -12 8 -46 -90 -36 -106 3 -6 1 -7 -5 -3 -7
4 -12 1 -12 -8 0 -26 -1 -30 -12 -43 -5 -7 -6 -18 -2 -24 4 -7 3 -9 -3 -6 -6
4 -14 -7 -18 -26 -4 -17 -9 -36 -11 -42 -1 -5 -6 -21 -9 -35 -9 -36 -11 -43
-20 -62 -4 -10 -5 -25 -1 -33 3 -8 2 -15 -3 -15 -8 0 -10 -9 -14 -55 -1 -14
-5 -25 -9 -25 -3 0 -5 -13 -4 -29 1 -17 -2 -27 -7 -24 -6 4 -8 -5 -5 -20 3
-16 1 -24 -5 -20 -6 4 -8 -4 -5 -20 3 -15 2 -24 -3 -21 -4 2 -8 -4 -8 -13 0
-10 -3 -38 -7 -63 -4 -25 -8 -68 -8 -97 -1 -28 -4 -49 -8 -47 -4 2 -7 -13 -8
-33 -3 -107 -6 -143 -12 -143 -3 0 -6 -92 -6 -205 0 -112 3 -203 7 -201 3 2 6
-28 7 -67 0 -40 4 -106 9 -147 4 -41 8 -81 8 -87 0 -7 4 -13 8 -13 4 0 5 -16
2 -35 -3 -19 -2 -42 2 -52 5 -10 7 -24 6 -30 -1 -7 2 -13 8 -13 5 0 7 -10 3
-22 -3 -14 -1 -19 6 -14 7 4 10 0 7 -12 -2 -10 4 -47 12 -83 8 -35 16 -71 18
-79 2 -8 4 -17 5 -20 5 -11 7 -26 8 -53 1 -16 6 -25 12 -22 6 3 7 -1 4 -9 -3
-9 -2 -16 3 -16 5 0 10 -12 11 -26 1 -14 5 -31 9 -37 8 -12 9 -18 12 -38 0 -5
5 -8 10 -5 5 4 7 -4 3 -16 -4 -16 -2 -19 8 -13 8 5 11 4 7 -2 -9 -14 3 -74 13
-68 5 3 6 -4 3 -15 -3 -11 -1 -20 4 -20 5 0 10 -12 11 -26 1 -15 6 -32 12 -39
5 -6 8 -14 5 -17 -3 -3 227 -5 510 -5 295 0 515 4 515 9 0 5 5 6 12 2 7 -4 8
-3 4 5 -4 6 -12 8 -18 5 -8 -5 -9 -1 -5 10 6 16 -26 96 -39 96 -3 0 -2 -5 2
-12 4 -7 3 -8 -5 -4 -6 4 -9 11 -6 16 7 12 -47 120 -57 114 -4 -3 -5 3 -1 12
5 13 3 15 -7 9 -9 -5 -11 -4 -6 4 10 15 -3 53 -15 46 -8 -6 -13 9 -10 29 3 16
-11 46 -19 41 -4 -3 -6 4 -3 14 3 11 -3 27 -14 38 -10 10 -17 27 -15 37 3 13
0 16 -9 11 -8 -5 -10 -4 -5 4 4 6 2 19 -6 28 -7 10 -8 14 -1 10 7 -5 9 0 6 13
-3 11 -9 17 -15 14 -5 -3 -6 6 -2 22 5 20 4 25 -6 19 -9 -5 -10 -2 -6 12 4 12
1 25 -7 32 -9 7 -12 22 -9 38 3 16 1 24 -5 20 -6 -4 -9 4 -7 18 1 14 -1 27 -6
30 -4 3 -6 15 -2 27 3 14 1 19 -6 14 -8 -4 -10 -2 -6 8 3 8 2 21 -2 28 -5 7
-7 26 -5 42 1 16 -1 26 -7 22 -5 -3 -8 7 -6 25 2 16 0 28 -4 25 -4 -2 -5 18
-4 45 2 27 0 49 -5 49 -5 0 -8 25 -6 55 1 30 0 55 -5 55 -8 0 -9 201 0 215 3
6 5 44 4 85 -1 41 2 81 7 87 5 7 7 26 5 42 -2 17 -1 28 4 25 4 -3 7 15 5 40
-1 24 1 42 6 39 5 -3 8 13 5 35 -2 22 0 38 4 36 4 -3 6 9 4 25 -2 17 1 31 6
31 6 0 8 11 6 25 -3 15 -1 22 5 18 6 -4 7 4 3 21 -4 17 -3 25 3 22 5 -4 10 2
9 11 0 10 3 29 7 43 4 14 8 35 9 47 2 12 7 28 13 35 17 23 24 50 10 42 -9 -6
-9 -5 0 8 7 8 10 18 6 21 -3 4 -1 7 6 7 8 0 11 6 7 16 -4 10 -2 13 6 8 7 -5 9
0 6 14 -4 14 -2 20 5 15 6 -4 8 2 5 15 -3 12 -3 22 1 24 12 6 51 90 45 99 -3
5 -1 9 5 9 6 0 18 14 27 31 8 17 11 28 5 25 -7 -4 -8 -1 -5 8 3 9 10 16 15 16
5 0 16 14 25 31 8 17 11 28 5 25 -18 -11 -13 -1 14 28 14 15 25 36 25 47 0 10
4 19 10 19 14 0 51 80 43 94 -3 6 -2 8 2 3 10 -9 46 43 39 55 -3 5 -2 7 3 6 4
-2 10 2 12 7 2 6 12 16 23 24 11 7 17 20 14 28 -3 8 -2 12 3 8 12 -7 72 75 64
89 -3 6 -3 8 2 4 11 -10 37 11 29 23 -3 5 -2 8 3 7 4 -2 9 1 10 6 0 5 8 13 17
18 9 5 14 13 11 17 -2 5 5 11 16 14 13 4 18 10 13 18 -4 7 -3 10 3 6 10 -6 60
52 55 66 -1 4 4 6 10 5 7 -2 12 3 10 10 -1 8 2 11 7 8 5 -4 13 -1 18 6 4 7 17
18 28 25 11 6 19 16 17 22 -1 6 4 10 10 9 7 -2 12 3 10 10 -1 6 2 11 7 10 5
-2 18 8 30 21 12 13 21 21 21 16 0 -4 7 -2 15 5 8 7 12 16 9 21 -3 5 0 8 8 7
7 -2 12 3 10 10 -1 8 2 11 6 8 5 -3 22 6 38 21 16 15 31 27 34 27 3 1 4 5 2 9
-1 5 2 6 7 3 5 -4 24 9 42 26 18 18 29 26 24 18 -4 -8 3 -6 16 6 13 12 32 24
42 27 11 4 15 12 11 18 -4 7 -3 9 4 6 15 -10 43 3 35 16 -3 6 -1 7 5 3 13 -8
75 28 65 38 -4 4 0 4 10 0 10 -3 17 -1 17 5 0 6 3 10 8 9 10 -2 65 24 73 35 3
5 10 9 15 9 15 1 59 22 65 31 3 5 10 8 15 8 18 -1 44 11 40 18 -3 4 0 8 7 9
30 2 62 13 65 22 2 6 8 8 13 4 5 -3 9 0 9 6 0 6 5 8 10 5 6 -4 17 -1 25 5 8 7
15 10 15 6 0 -4 13 0 29 8 16 9 31 12 35 9 3 -4 6 -1 6 6 0 7 5 9 10 6 6 -3
16 -3 23 2 13 8 23 11 67 20 16 3 28 9 25 13 -3 5 4 6 15 3 11 -3 28 -2 37 2
10 5 24 7 32 6 7 -1 11 1 8 6 -3 4 13 9 34 10 22 0 47 4 57 8 19 8 79 15 130
14 19 0 31 4 29 8 -3 5 15 7 39 6 25 -2 43 1 40 5 -2 4 36 6 85 5 50 -1 88 1
85 5 -5 8 175 8 190 0 5 -3 39 -5 76 -4 36 1 64 -3 61 -8 -3 -4 15 -7 41 -5
25 2 46 1 46 -3 0 -3 11 -5 25 -3 14 1 25 -2 25 -7 0 -6 7 -8 15 -5 8 4 17 1
21 -4 3 -6 17 -9 30 -6 13 2 25 1 26 -3 2 -4 21 -10 43 -14 22 -3 55 -10 73
-15 17 -5 32 -7 32 -3 0 4 4 2 8 -5 4 -6 21 -13 37 -15 17 -2 32 -5 35 -8 12
-12 81 -31 91 -24 8 5 9 3 4 -6 -6 -10 -4 -12 8 -7 9 3 17 1 19 -4 2 -6 10
-11 18 -13 17 -3 61 -21 107 -43 18 -8 37 -11 44 -7 7 4 9 3 6 -3 -8 -13 20
-26 35 -16 6 3 8 1 5 -4 -8 -13 20 -26 35 -16 6 3 8 1 5 -4 -8 -12 20 -26 33
-18 5 3 12 0 16 -6 4 -8 3 -9 -4 -5 -7 4 -12 5 -12 2 0 -11 61 -37 72 -30 7 4
8 3 4 -4 -4 -7 -1 -12 7 -12 8 0 27 -10 43 -22 16 -13 25 -16 20 -8 -4 8 0 6
9 -5 9 -11 19 -20 24 -20 4 0 15 -8 25 -18 10 -9 22 -14 28 -11 6 4 8 2 4 -4
-3 -6 3 -14 16 -18 12 -3 30 -16 41 -28 10 -11 15 -14 12 -6 -4 8 5 2 20 -15
14 -16 23 -23 20 -15 -4 8 4 2 18 -13 16 -18 31 -26 38 -21 7 4 9 3 6 -3 -4
-6 0 -16 8 -23 8 -7 15 -9 16 -4 0 5 4 0 8 -11 5 -11 12 -20 17 -21 5 0 33
-24 62 -52 30 -29 59 -49 64 -45 7 3 8 1 4 -5 -3 -6 3 -16 14 -22 11 -6 19
-14 17 -18 -1 -5 21 -30 49 -58 27 -27 53 -57 57 -67 4 -10 12 -15 17 -12 6 4
9 1 8 -7 -2 -7 3 -12 10 -10 8 1 10 -2 7 -8 -4 -6 1 -19 12 -28 10 -10 23 -26
29 -37 6 -11 17 -20 25 -20 8 -1 13 -7 11 -14 -3 -14 33 -63 41 -55 3 3 4 -3
4 -13 -1 -10 3 -17 9 -16 7 1 11 -5 10 -15 0 -9 4 -16 11 -15 7 2 10 -3 7 -10
-2 -7 3 -21 12 -32 8 -11 12 -14 8 -6 -5 9 -3 12 5 7 6 -4 8 -12 5 -18 -4 -6
4 -20 17 -30 13 -11 18 -17 11 -13 -11 6 -12 3 -2 -14 6 -12 17 -24 25 -27 7
-3 16 -12 19 -20 3 -9 1 -12 -4 -9 -6 4 -5 -5 1 -19 7 -14 16 -23 21 -20 5 3
9 0 8 -7 -3 -23 12 -59 21 -53 5 3 6 -3 2 -12 -5 -13 -3 -15 7 -9 8 5 11 4 7
-3 -9 -14 3 -43 15 -36 5 3 9 0 7 -7 -3 -26 1 -40 10 -35 5 4 7 -3 4 -14 -3
-12 0 -20 6 -20 7 0 10 -4 7 -8 -8 -14 16 -82 27 -75 5 3 6 -3 3 -14 -4 -12
-1 -25 8 -32 8 -7 12 -19 9 -27 -3 -8 1 -22 8 -31 8 -8 12 -27 11 -41 -2 -14
0 -22 6 -18 6 4 8 -3 4 -16 -3 -13 -1 -19 5 -15 7 5 9 0 6 -13 -3 -12 2 -29
13 -42 11 -12 14 -18 7 -15 -7 5 -9 0 -6 -13 3 -11 9 -18 13 -15 4 2 5 -7 2
-22 -3 -14 -1 -23 4 -20 8 5 13 -27 14 -91 0 -13 4 -21 8 -18 5 3 7 -11 6 -30
-2 -19 0 -33 5 -30 4 3 6 -11 5 -30 -2 -19 0 -33 4 -30 4 2 6 -34 4 -81 -2
-47 0 -83 5 -80 4 3 7 -26 6 -64 -1 -38 1 -68 5 -65 4 2 7 -287 7 -642 l0
-647 461 -1 461 -1 -3 691 c-3 722 -4 756 -13 756 -3 0 -5 45 -4 100 1 55 -2
100 -6 100 -4 0 -5 16 -3 36 3 23 1 34 -5 31 -6 -4 -9 7 -6 29 2 20 0 33 -4
31 -5 -3 -7 12 -5 34 3 23 0 39 -6 39 -6 0 -9 8 -7 19 4 23 -28 174 -36 166
-4 -3 -5 6 -4 20 2 14 -1 27 -5 30 -5 3 -7 12 -3 20 3 9 -3 27 -12 41 -11 18
-12 24 -4 18 11 -6 12 -5 2 7 -12 15 -13 18 -13 50 0 13 -4 18 -12 13 -6 -4
-8 -3 -5 3 9 14 -3 74 -13 68 -4 -2 -5 7 -2 22 3 18 1 24 -6 19 -8 -5 -10 -2
-6 8 3 9 1 16 -6 16 -6 0 -9 4 -6 9 9 14 -5 42 -17 34 -6 -3 -7 -1 -3 6 9 14
-2 53 -14 46 -4 -3 -6 4 -3 15 3 11 1 20 -4 20 -5 0 -9 10 -10 22 -1 12 -9 25
-17 30 -8 5 -13 15 -10 22 3 8 0 17 -5 21 -6 3 -9 10 -6 15 3 5 1 11 -5 15 -5
3 -10 15 -10 26 0 11 -4 17 -10 14 -6 -3 -7 1 -4 9 3 9 1 16 -5 16 -6 0 -11 9
-11 19 0 10 -7 22 -16 25 -8 3 -13 10 -10 15 8 13 -29 83 -39 74 -4 -4 -5 -3
-2 4 10 16 -3 44 -16 36 -5 -3 -7 -1 -4 5 10 15 -3 43 -16 35 -6 -3 -7 -1 -3
5 7 12 -10 49 -34 70 -13 11 -13 12 0 6 9 -5 7 4 -8 27 -12 18 -26 33 -32 32
-5 -2 -7 4 -4 12 4 8 1 15 -5 15 -6 0 -11 7 -11 15 0 8 -4 15 -9 15 -5 0 -11
9 -14 21 -3 12 -10 18 -16 14 -7 -4 -8 0 -4 11 4 12 3 15 -6 10 -8 -5 -11 -3
-10 5 5 20 -50 101 -62 93 -6 -3 -9 2 -7 12 2 11 -2 18 -10 16 -6 -1 -11 1
-10 5 4 14 -23 54 -31 48 -5 -2 -8 3 -7 13 0 9 -5 16 -12 14 -8 -1 -11 2 -7 7
3 6 -3 19 -15 31 -11 11 -20 24 -20 29 0 5 -19 25 -42 46 -24 20 -36 34 -28
29 10 -5 9 0 -4 14 -10 12 -23 20 -29 19 -6 -1 -11 3 -12 9 0 6 -8 18 -18 28
-9 10 -22 26 -28 37 -5 11 -14 17 -20 14 -5 -4 -8 -1 -7 7 2 7 -3 12 -10 10
-6 -1 -11 4 -10 10 2 7 -3 12 -10 10 -6 -1 -11 4 -10 10 2 7 -3 12 -10 10 -6
-1 -11 4 -10 10 2 8 -5 12 -15 10 -9 -2 -16 1 -15 6 4 14 -91 104 -102 97 -6
-4 -9 -2 -8 3 2 5 -13 25 -34 43 -57 53 -68 60 -78 54 -6 -4 -9 -1 -8 7 2 7
-3 12 -10 10 -8 -1 -11 2 -7 7 5 10 -23 31 -37 28 -3 -1 -10 2 -15 7 -5 6 -2
6 7 1 13 -8 13 -7 1 9 -8 9 -20 15 -28 12 -8 -3 -11 -1 -8 4 3 6 -2 13 -12 17
-10 4 -24 15 -31 25 -7 10 -20 18 -28 18 -8 0 -14 5 -14 10 0 6 -7 10 -15 10
-8 0 -15 5 -15 11 0 6 -7 8 -16 5 -9 -3 -12 -2 -9 5 4 6 -2 13 -14 16 -12 3
-21 10 -21 15 0 6 -7 7 -16 4 -9 -3 -12 -2 -9 5 4 6 -2 13 -14 16 -12 3 -21
10 -21 15 0 6 -7 8 -15 4 -8 -3 -14 0 -12 6 1 7 -4 12 -11 13 -7 0 -17 6 -21
14 -5 8 -14 10 -21 6 -8 -5 -11 -4 -7 2 8 13 -20 26 -35 16 -6 -3 -8 -1 -5 4
4 6 -1 14 -11 18 -9 3 -17 5 -18 3 0 -2 -8 5 -18 15 -10 9 -22 15 -27 12 -5
-4 -9 -1 -9 4 0 6 -7 11 -15 11 -8 0 -15 5 -15 12 0 6 -3 9 -6 5 -4 -3 -13 1
-21 9 -9 8 -22 13 -30 10 -8 -3 -11 -1 -8 4 6 9 1 11 -33 14 -7 1 -17 7 -21
15 -5 8 -14 10 -21 6 -9 -6 -11 -4 -5 5 6 10 3 12 -13 8 -14 -4 -20 -2 -15 5
4 7 0 8 -11 4 -9 -4 -14 -3 -11 2 6 10 -32 26 -52 23 -7 -2 -13 2 -13 9 0 6
-7 8 -16 5 -10 -4 -13 -2 -8 6 5 8 2 9 -10 5 -9 -4 -14 -3 -11 2 7 12 -31 24
-46 15 -8 -5 -9 -3 -4 6 6 10 3 12 -13 8 -14 -4 -20 -2 -16 4 4 6 -2 8 -16 3
-17 -5 -21 -4 -15 6 6 9 2 11 -13 7 -14 -4 -20 -2 -16 4 5 7 -2 9 -20 4 -20
-5 -26 -4 -20 5 5 9 1 10 -14 7 -14 -4 -20 -2 -15 5 4 6 0 8 -10 4 -10 -3 -17
-3 -17 2 0 8 -55 24 -64 18 -1 -1 -11 5 -21 13 -17 13 -18 13 -10 0 8 -13 6
-13 -8 -2 -9 8 -22 10 -28 6 -8 -5 -9 -3 -4 6 6 10 2 11 -19 6 -20 -5 -26 -4
-20 5 5 9 1 10 -14 7 -12 -4 -22 -2 -22 4 0 6 -6 8 -14 5 -8 -3 -17 -3 -20 1
-6 6 -21 10 -61 17 -11 2 -20 4 -20 5 0 5 -111 21 -166 24 -19 2 -39 5 -45 8
-10 6 -32 8 -121 11 -35 1 -63 6 -63 10 0 5 -34 7 -75 5 -41 -3 -72 -1 -70 2
3 4 -45 7 -105 7 -60 0 -108 -2 -106 -6z m-2364 -1044 c0 -1 -24 -25 -52 -52
l-53 -50 50 53 c46 48 55 57 55 49z"/>
<path d="M14295 15651 c2 -4 -21 -6 -51 -4 -30 1 -53 -1 -50 -5 2 -4 -20 -6
-50 -6 -30 1 -56 -2 -59 -6 -2 -4 -20 -6 -40 -3 -19 2 -35 0 -35 -4 0 -5 -17
-9 -38 -9 -79 -3 -111 -7 -107 -14 2 -3 -9 -5 -24 -2 -16 2 -32 -1 -35 -7 -4
-6 -20 -8 -38 -4 -20 4 -29 2 -25 -4 4 -6 -4 -8 -20 -5 -17 3 -24 1 -19 -6 4
-6 -2 -8 -16 -4 -11 3 -19 1 -16 -4 4 -5 -4 -10 -15 -10 -12 -1 -31 -4 -42 -7
-11 -3 -28 -6 -38 -6 -10 -1 -16 -5 -13 -10 4 -5 -4 -7 -16 -3 -16 4 -19 2
-13 -8 5 -8 4 -11 -3 -6 -14 8 -133 -25 -126 -35 3 -5 -3 -6 -12 -2 -11 4 -15
3 -11 -4 5 -7 -1 -9 -15 -5 -16 4 -19 2 -13 -8 5 -9 4 -11 -4 -6 -12 8 -82
-13 -92 -27 -3 -5 -9 -8 -13 -8 -25 4 -36 0 -30 -11 4 -7 3 -8 -5 -4 -16 10
-53 -3 -45 -16 5 -7 2 -9 -8 -5 -9 3 -24 0 -34 -8 -11 -7 -21 -13 -24 -12 -15
1 -50 -16 -50 -24 0 -5 -12 -9 -26 -9 -14 0 -22 -4 -19 -10 3 -6 -1 -7 -9 -4
-9 3 -16 1 -16 -5 0 -6 -3 -10 -7 -10 -20 3 -34 -2 -28 -11 4 -6 -1 -7 -11 -3
-13 5 -15 3 -9 -7 5 -8 4 -11 -3 -6 -14 8 -74 -28 -64 -39 4 -5 1 -5 -5 -1
-16 9 -56 -17 -45 -29 4 -4 -1 -5 -10 -2 -10 3 -20 2 -24 -4 -3 -6 -17 -14
-31 -20 -13 -5 -21 -13 -18 -19 3 -6 -1 -7 -9 -4 -9 3 -16 1 -16 -5 0 -6 -6
-10 -12 -8 -7 1 -12 -3 -11 -9 1 -7 -5 -11 -15 -10 -9 0 -16 -5 -14 -12 1 -7
-3 -12 -10 -11 -25 3 -39 -1 -33 -10 3 -5 -5 -11 -17 -13 -13 -2 -22 -9 -20
-16 1 -8 -2 -11 -9 -6 -7 4 -20 -3 -31 -17 -11 -13 -17 -18 -13 -10 10 17 -43
-15 -70 -44 -11 -11 -16 -14 -11 -5 4 8 -6 -1 -24 -20 -18 -19 -29 -28 -25
-20 3 8 -7 0 -24 -17 -17 -18 -33 -33 -37 -33 -3 0 -26 -21 -51 -47 -26 -27
-43 -41 -38 -33 8 13 6 13 -8 1 -9 -7 -14 -17 -11 -22 3 -5 0 -8 -8 -7 -7 2
-12 -3 -10 -10 1 -8 -2 -11 -7 -8 -9 6 -29 -12 -30 -29 -1 -5 -7 -10 -13 -10
-7 -1 -12 -6 -10 -13 1 -7 -4 -11 -10 -10 -7 2 -12 -3 -10 -10 1 -6 -4 -11
-10 -10 -7 2 -12 -3 -10 -10 1 -6 -4 -11 -10 -10 -7 2 -12 -3 -10 -10 1 -6 -4
-11 -10 -10 -7 2 -12 -3 -10 -10 1 -6 -4 -11 -10 -10 -7 2 -12 -3 -10 -10 1
-6 -4 -11 -10 -10 -7 2 -12 -3 -10 -10 1 -6 -4 -11 -10 -10 -7 2 -12 -3 -10
-10 1 -6 -4 -11 -10 -10 -7 2 -12 -3 -10 -10 1 -8 -2 -11 -7 -7 -6 3 -18 -7
-28 -22 -10 -15 -42 -52 -70 -82 -29 -29 -50 -58 -47 -63 3 -4 0 -7 -6 -6 -6
2 -23 -13 -38 -32 -15 -19 -20 -30 -12 -25 9 6 3 -2 -14 -16 -16 -14 -26 -31
-23 -36 4 -6 -1 -17 -11 -24 -15 -12 -16 -12 -7 1 6 9 0 5 -12 -9 -12 -13 -27
-36 -35 -50 -7 -14 -20 -32 -28 -39 -13 -12 -13 -13 0 -6 8 4 2 -5 -13 -21
-15 -16 -25 -35 -23 -42 3 -8 2 -12 -2 -9 -4 3 -14 -4 -21 -16 -10 -16 -10
-19 1 -13 7 5 3 -2 -10 -14 -12 -12 -19 -27 -16 -33 4 -6 3 -8 -4 -4 -9 5 -25
-23 -25 -44 0 -3 -6 -9 -13 -15 -7 -5 -14 -17 -16 -25 -2 -8 -9 -21 -16 -29
-7 -7 -11 -20 -8 -28 4 -9 2 -11 -6 -7 -8 5 -9 2 -5 -10 4 -9 3 -15 -2 -12 -8
6 -44 -66 -46 -90 0 -6 -6 -18 -14 -27 -7 -9 -9 -22 -5 -28 5 -8 3 -9 -6 -4
-10 6 -12 4 -7 -9 4 -10 3 -15 -3 -11 -9 6 -14 -8 -11 -27 0 -5 -4 -8 -10 -8
-5 0 -8 -4 -4 -9 3 -5 0 -13 -6 -16 -5 -4 -8 -14 -5 -22 4 -9 2 -11 -6 -7 -7
5 -9 0 -6 -14 4 -12 2 -20 -2 -17 -12 7 -23 -32 -14 -46 5 -8 3 -9 -6 -4 -10
6 -12 4 -7 -9 4 -10 3 -15 -3 -11 -9 5 -15 -18 -7 -28 1 -2 -4 -11 -11 -20 -8
-9 -10 -22 -6 -28 5 -8 3 -9 -6 -4 -10 6 -12 3 -8 -13 4 -12 2 -20 -2 -17 -11
7 -23 -31 -15 -45 3 -5 1 -10 -6 -10 -6 0 -9 -8 -6 -20 3 -12 1 -18 -5 -14 -7
5 -9 -3 -6 -20 3 -15 3 -24 0 -21 -8 8 -33 -95 -26 -106 3 -5 0 -9 -7 -9 -6 0
-9 -8 -6 -20 3 -11 1 -18 -4 -14 -5 3 -10 -6 -10 -20 -2 -42 -5 -60 -13 -78
-5 -10 -5 -25 -2 -34 3 -8 2 -12 -4 -9 -5 3 -9 -3 -10 -12 -4 -70 -6 -83 -11
-83 -4 0 -6 -15 -5 -34 1 -19 -2 -32 -6 -30 -4 3 -6 -11 -4 -31 1 -19 -2 -35
-7 -35 -5 0 -7 -20 -4 -45 2 -25 1 -48 -4 -50 -4 -3 -6 -27 -6 -55 1 -28 -1
-50 -4 -50 -4 0 -6 -90 -6 -200 0 -109 3 -197 6 -195 3 1 7 -31 7 -73 3 -123
6 -172 14 -172 3 0 5 -16 3 -36 -1 -21 1 -42 4 -48 4 -6 8 -26 9 -46 3 -49 12
-104 23 -133 6 -14 7 -27 4 -30 -3 -3 -1 -12 3 -19 9 -14 10 -19 12 -56 1 -13
6 -21 11 -18 4 3 6 -6 3 -21 -3 -18 -1 -24 6 -19 8 5 10 -2 6 -22 -3 -17 -1
-32 5 -36 5 -4 7 -14 4 -23 -4 -10 -2 -14 4 -10 6 4 11 1 10 -6 -1 -32 4 -48
13 -42 6 3 7 -1 4 -9 -3 -9 -1 -16 5 -16 6 0 10 -3 10 -7 -4 -24 2 -53 10 -49
5 4 7 -3 4 -14 -3 -11 -1 -20 5 -20 5 0 10 -6 9 -12 -1 -36 4 -59 12 -54 5 4
8 -2 6 -11 -1 -10 0 -22 4 -28 6 -11 8 -17 10 -41 0 -8 5 -13 10 -10 5 4 7 -2
4 -12 -4 -18 15 -19 510 -18 284 1 519 4 523 9 4 4 2 7 -4 7 -7 0 -11 3 -10 8
4 14 -38 92 -46 85 -4 -4 -4 1 0 11 6 15 4 17 -6 11 -8 -5 -11 -4 -7 2 8 13
-28 84 -38 75 -5 -4 -5 -1 -1 6 11 18 -13 73 -28 65 -6 -3 -8 -3 -4 2 4 4 2
15 -5 23 -10 13 -9 14 1 8 11 -7 12 -4 3 13 -7 11 -16 21 -21 21 -6 0 -9 3 -9
8 5 27 -2 52 -13 46 -6 -4 -8 -3 -5 4 8 12 -2 44 -12 38 -3 -2 -7 6 -8 17 -4
46 -16 87 -23 82 -5 -3 -6 5 -2 17 3 14 1 19 -6 14 -7 -4 -10 1 -7 14 2 11 0
20 -5 20 -4 0 -6 9 -3 20 3 11 1 20 -4 20 -5 0 -9 8 -10 18 -1 9 -4 26 -6 37
-3 11 -6 30 -6 43 -1 13 -5 21 -9 18 -5 -3 -6 9 -4 26 3 19 1 28 -5 25 -6 -4
-9 5 -7 23 2 16 0 32 -5 35 -5 3 -7 15 -3 27 3 11 1 19 -4 16 -5 -4 -10 17
-11 45 -4 124 -7 157 -12 157 -3 0 -6 83 -6 184 0 101 4 182 8 179 4 -2 7 10
7 29 0 18 2 53 6 78 3 25 7 62 7 82 1 21 6 38 11 38 5 0 6 14 2 30 -3 18 -2
29 4 25 5 -3 9 3 9 12 0 10 5 38 11 62 6 24 8 51 6 58 -4 9 -1 11 6 7 7 -5 9
0 6 14 -4 13 -1 22 5 22 6 0 7 3 4 7 -4 3 -2 12 4 19 6 8 9 21 5 29 -3 9 -2
14 3 11 9 -6 25 37 24 66 0 10 4 15 8 12 7 -4 12 14 8 29 0 1 6 15 15 31 8 16
13 33 10 38 -3 4 0 8 6 8 7 0 9 7 6 16 -4 10 -2 13 6 8 7 -5 9 0 6 14 -4 14
-2 20 5 15 7 -4 8 0 4 11 -4 9 -3 15 2 12 11 -7 23 22 14 36 -3 7 -1 8 5 4 7
-4 12 -1 12 8 0 8 11 36 25 62 14 25 22 51 18 57 -3 5 -2 7 4 4 13 -8 46 50
37 66 -4 6 -4 9 1 5 11 -10 47 50 39 64 -4 6 -3 8 3 5 9 -6 27 19 23 31 0 1
11 15 25 30 14 15 25 32 25 39 0 7 5 13 11 13 6 0 8 7 5 16 -3 8 -2 13 2 11 4
-3 23 18 42 46 19 29 52 68 73 87 21 19 40 44 41 55 2 11 8 20 14 20 14 0 27
14 27 28 0 7 5 12 12 12 15 0 28 13 28 28 0 7 7 12 15 12 8 1 14 6 12 13 -1 7
4 11 10 10 7 -2 12 3 10 10 -1 6 4 11 10 10 7 -2 12 3 10 10 -1 8 2 11 7 8 13
-9 82 54 74 67 -3 6 -1 7 5 3 6 -3 15 1 20 10 5 8 20 21 33 28 13 7 23 18 21
24 -1 7 1 11 5 11 18 -3 36 2 30 7 -4 4 8 15 26 25 17 9 31 22 29 28 -1 6 1
10 5 9 14 -4 54 23 48 32 -3 6 0 7 8 4 8 -3 21 1 28 9 8 7 36 26 63 41 27 15
55 33 63 41 8 8 20 15 28 15 7 0 15 7 19 15 3 8 9 15 13 14 19 -3 34 2 29 9
-2 4 5 9 16 9 12 1 24 7 28 13 4 7 10 11 14 10 15 -3 64 25 59 34 -3 5 -1 6 6
2 15 -9 53 3 46 15 -3 5 1 6 9 3 9 -3 16 -1 16 5 0 6 3 10 8 10 4 -1 10 0 15
1 15 5 27 8 43 9 8 0 12 5 9 11 -3 6 1 7 9 4 9 -3 16 -1 16 6 0 6 5 8 10 5 6
-4 16 -2 23 3 13 11 17 12 43 12 8 0 13 4 10 9 -4 5 4 7 16 3 14 -3 19 -1 14
6 -5 8 -2 10 9 6 8 -4 21 -2 28 4 13 11 16 12 48 12 11 0 18 4 15 9 -3 4 6 6
21 3 14 -3 23 -1 20 4 -3 5 5 9 16 10 12 0 38 4 57 8 19 4 43 7 53 7 9 0 17 4
17 8 0 5 12 6 26 3 15 -3 24 -1 21 4 -3 5 9 8 26 8 18 -1 37 1 42 4 6 4 21 7
35 8 14 1 27 2 30 4 3 1 38 2 78 2 39 0 70 3 68 6 -2 4 51 7 119 7 68 0 121
-3 119 -6 -2 -4 24 -7 59 -8 75 -1 152 -7 163 -13 10 -5 56 -11 101 -12 17 -1
29 -5 26 -10 -3 -5 8 -7 25 -4 17 2 28 0 25 -5 -3 -5 3 -8 13 -6 11 1 27 -1
37 -6 9 -4 24 -4 33 -1 10 4 13 2 8 -6 -5 -7 0 -9 14 -6 12 4 22 2 22 -4 0 -6
11 -8 25 -6 15 3 22 1 18 -5 -4 -6 2 -8 15 -5 12 4 22 3 22 -2 0 -8 64 -25 87
-23 7 0 10 -4 6 -10 -4 -6 2 -8 15 -5 12 4 20 2 16 -3 -4 -8 9 -11 32 -8 4 0
10 -4 14 -10 3 -7 20 -13 37 -14 17 -1 29 -5 26 -9 -4 -7 29 -13 50 -9 5 1 5
-4 1 -10 -5 -9 -2 -10 10 -6 9 4 15 3 12 -2 -7 -11 22 -23 36 -14 6 3 8 2 5
-4 -6 -9 70 -50 86 -45 4 1 7 -2 7 -8 0 -5 7 -6 17 -3 10 4 14 2 9 -5 -3 -6 3
-16 15 -22 17 -10 20 -9 15 2 -4 7 1 3 10 -9 9 -13 23 -23 30 -23 8 0 14 -5
14 -11 0 -5 5 -7 10 -4 6 3 10 1 10 -5 0 -7 7 -9 16 -6 9 3 12 2 9 -5 -4 -6 2
-13 14 -16 12 -3 21 -10 21 -15 0 -6 8 -7 17 -4 10 4 14 4 11 0 -7 -6 64 -64
77 -64 3 0 15 -9 27 -20 12 -10 26 -17 31 -13 6 3 7 1 3 -6 -4 -6 0 -14 11
-18 10 -4 27 -15 37 -25 10 -9 23 -15 28 -12 5 3 7 0 6 -8 -2 -7 3 -12 10 -10
6 1 11 -4 10 -10 -2 -7 4 -11 12 -10 8 2 12 0 8 -4 -12 -11 60 -76 75 -68 6 4
9 4 5 0 -4 -5 12 -27 35 -50 23 -24 48 -52 56 -64 8 -11 18 -19 23 -16 5 3 7
0 6 -8 -2 -7 3 -12 10 -10 8 1 11 -2 7 -8 -4 -6 13 -29 37 -52 24 -23 36 -38
28 -34 -8 5 -1 -4 15 -19 17 -14 23 -23 15 -19 -13 7 -13 5 -1 -9 7 -9 18 -14
24 -10 6 3 7 1 3 -5 -7 -11 -1 -22 37 -63 9 -10 17 -22 17 -25 0 -4 15 -19 33
-35 17 -16 29 -29 24 -29 -8 0 30 -80 39 -80 3 0 2 5 -2 12 -4 7 -3 8 4 4 6
-4 9 -13 6 -20 -3 -7 2 -21 11 -29 9 -9 17 -20 18 -24 1 -4 6 -7 10 -5 5 1 6
-2 3 -7 -9 -14 5 -42 17 -34 5 3 7 1 4 -5 -10 -15 3 -43 16 -35 5 3 7 1 4 -5
-10 -15 3 -43 17 -35 6 3 8 3 4 -2 -4 -4 -2 -15 5 -23 10 -13 9 -14 -1 -8 -10
6 -10 2 -1 -18 7 -14 16 -23 20 -20 5 3 6 -3 2 -12 -4 -11 -3 -15 4 -11 7 5 9
-1 5 -15 -4 -15 -2 -19 7 -14 8 5 12 3 10 -5 -3 -26 1 -40 10 -35 5 4 7 -3 4
-14 -3 -11 -1 -20 5 -20 6 0 8 -10 4 -22 -3 -13 -1 -19 5 -15 7 5 9 -1 5 -15
-3 -15 -2 -19 7 -14 9 6 10 0 5 -20 -5 -19 -4 -25 4 -20 8 5 10 2 6 -8 -3 -9
-1 -16 6 -16 6 0 9 -4 5 -9 -3 -5 -1 -12 3 -15 5 -3 7 -18 4 -32 -3 -18 -1
-25 6 -20 7 4 9 -3 6 -20 -3 -16 -1 -23 6 -19 5 3 7 0 4 -8 -3 -8 -1 -18 4
-21 5 -3 7 -18 4 -32 -3 -18 -1 -25 6 -20 7 4 9 -2 6 -18 -2 -14 0 -27 5 -31
6 -3 7 -13 4 -22 -5 -12 -3 -14 7 -8 9 5 11 4 6 -3 -4 -7 -4 -17 0 -24 4 -7 7
-32 5 -56 -1 -25 1 -42 6 -39 6 4 8 -21 6 -60 -3 -42 -1 -63 6 -59 9 6 5 -43
-4 -53 -3 -2 -511 -4 -1130 -4 l-1125 0 1 -462 2 -462 1562 0 1563 0 -2 29
c-1 15 1 28 6 28 4 0 8 10 8 23 1 65 6 105 13 100 4 -2 6 11 4 31 -3 22 0 33
6 29 6 -3 8 8 5 30 -2 20 0 33 4 31 9 -6 10 8 13 146 2 52 5 102 8 110 4 8 4
132 2 275 -2 143 -4 273 -4 288 0 16 -4 26 -8 24 -5 -3 -7 13 -5 35 3 23 0 38
-5 35 -5 -3 -7 10 -5 30 3 24 1 34 -7 29 -7 -5 -9 2 -5 24 4 16 3 30 -2 30 -5
0 -10 12 -10 28 -3 70 -5 83 -13 78 -4 -3 -6 6 -3 21 3 18 1 24 -7 19 -8 -6
-10 -1 -6 17 4 14 2 28 -4 31 -5 4 -8 13 -4 21 3 8 1 15 -3 15 -5 0 -10 10
-10 23 -1 12 -4 31 -7 42 -3 11 -6 26 -6 33 -1 7 -5 11 -9 8 -5 -3 -8 3 -8 12
0 46 -5 73 -11 69 -5 -3 -9 8 -9 25 -1 17 -5 33 -10 37 -5 3 -9 12 -10 19 -2
28 -4 33 -13 28 -5 -4 -7 3 -4 14 3 11 0 20 -6 20 -5 0 -8 7 -5 15 4 8 1 15
-6 15 -6 0 -8 5 -5 10 3 6 2 10 -4 10 -6 0 -8 7 -5 15 4 8 1 15 -5 15 -7 0
-11 6 -9 13 5 24 -12 68 -24 61 -7 -4 -8 -3 -4 5 8 13 -14 81 -26 81 -4 0 -8
7 -8 15 0 15 -19 55 -31 65 -3 3 -9 18 -13 33 -4 17 -11 25 -18 21 -7 -4 -8
-3 -4 4 7 11 -11 51 -29 64 -5 4 -10 13 -11 20 -1 25 -26 78 -34 73 -4 -3 -7
3 -6 13 0 9 -4 16 -11 15 -7 -2 -10 3 -7 11 3 8 0 17 -7 22 -8 5 -10 3 -4 -6
5 -9 4 -11 -4 -6 -6 4 -9 11 -6 16 7 12 -41 96 -53 93 -5 -1 -9 5 -8 15 0 9
-4 16 -10 15 -7 -1 -11 5 -10 15 0 9 -5 16 -12 14 -8 -1 -10 2 -7 8 4 6 -6 23
-22 37 -15 14 -21 22 -13 17 11 -5 10 -2 -2 13 -10 11 -18 25 -18 31 0 6 -6
15 -12 19 -7 4 -18 17 -25 28 -6 11 -16 19 -23 17 -6 -1 -9 1 -6 6 7 12 -44
73 -56 66 -4 -3 -7 0 -6 8 2 7 -3 12 -10 10 -8 -1 -11 2 -7 9 4 6 -10 27 -31
47 -22 19 -32 32 -24 27 13 -8 13 -6 1 8 -7 9 -18 14 -24 10 -6 -4 -7 -1 -3 6
10 15 -23 53 -38 44 -6 -3 -8 -3 -4 2 10 10 -19 38 -32 30 -6 -4 -9 -1 -8 7 2
7 -3 12 -10 10 -6 -1 -11 4 -10 10 2 7 -3 12 -10 10 -6 -1 -11 4 -10 10 2 7
-3 12 -10 10 -8 -1 -11 2 -8 7 3 5 -1 14 -9 21 -8 7 -15 9 -16 4 0 -5 -4 1
-10 14 -5 14 -13 20 -20 16 -7 -4 -9 -3 -6 3 8 12 -38 54 -50 45 -4 -4 -5 -3
-1 2 10 11 -11 38 -23 30 -5 -3 -8 0 -7 8 2 8 -4 12 -15 10 -9 -2 -16 1 -15 5
5 14 -65 84 -79 79 -7 -3 -12 0 -10 7 1 7 -4 11 -11 9 -6 -1 -11 4 -10 10 2 7
-3 12 -10 10 -8 -1 -11 2 -7 7 7 12 -29 33 -40 23 -5 -4 -6 -2 -2 3 3 6 -11
22 -31 35 -20 14 -40 29 -44 35 -4 5 -8 7 -8 3 0 -5 -9 1 -20 12 -12 12 -26
18 -32 14 -7 -5 -8 -3 -3 6 6 10 4 12 -9 7 -9 -4 -15 -3 -11 2 3 5 -9 20 -27
32 -17 13 -28 18 -24 11 5 -8 2 -10 -9 -6 -9 4 -13 9 -10 12 5 6 -71 52 -86
52 -6 0 -20 9 -32 20 -12 11 -27 18 -34 16 -7 -3 -12 0 -10 7 1 7 -4 11 -10 9
-7 -1 -13 3 -13 9 0 5 -4 7 -10 4 -5 -3 -10 -3 -10 2 0 12 -51 33 -63 26 -6
-3 -7 -1 -3 5 6 10 -7 17 -17 10 -2 -2 -12 5 -22 15 -9 10 -24 16 -32 13 -9
-4 -11 -2 -7 6 5 7 0 9 -14 6 -12 -4 -20 -2 -16 3 3 5 0 9 -5 9 -18 0 -26 3
-39 17 -8 7 -18 11 -23 8 -5 -4 -9 -1 -9 5 0 6 -4 8 -10 5 -5 -3 -10 -1 -10 5
0 6 -4 9 -9 5 -5 -3 -13 0 -16 6 -4 5 -14 8 -22 5 -9 -4 -11 -2 -7 6 5 7 0 9
-14 6 -12 -4 -20 -3 -18 1 7 11 -62 33 -75 25 -8 -4 -9 -3 -5 4 7 11 3 14 -26
16 -7 1 -19 7 -27 14 -8 8 -22 11 -33 9 -10 -3 -16 -2 -13 3 6 10 -24 22 -36
14 -5 -3 -9 0 -9 7 0 6 -8 9 -20 6 -11 -3 -20 -1 -20 5 0 6 -11 8 -25 6 -15
-3 -22 -1 -18 5 4 6 -2 8 -15 5 -12 -4 -22 -2 -22 4 0 6 -11 8 -25 6 -15 -3
-22 -1 -18 5 4 6 -2 8 -15 5 -12 -4 -22 -2 -22 4 0 6 -9 8 -20 5 -11 -3 -20
-1 -20 3 0 5 -8 9 -17 9 -10 1 -31 3 -48 6 -16 3 -41 6 -55 8 -14 1 -28 6 -31
11 -4 4 -27 9 -52 10 -25 0 -43 4 -41 8 3 4 -9 6 -25 4 -17 -2 -28 0 -26 5 3
4 -15 7 -39 5 -25 -1 -43 1 -40 6 3 4 -20 6 -50 5 -30 -2 -53 0 -50 4 2 4 -21
6 -52 5 -31 -1 -58 2 -60 5 -2 4 -87 7 -189 7 -102 0 -183 -3 -180 -7z m-1465
-1544 c0 -2 -10 -12 -22 -23 l-23 -19 19 23 c18 21 26 27 26 19z m-230 -231
c0 -2 -8 -10 -17 -17 -16 -13 -17 -12 -4 4 13 16 21 21 21 13z"/>
<path d="M7390 10797 c-19 -10 -25 -20 -24 -42 3 -55 4 -57 20 -51 8 3 12 2 9
-4 -7 -12 32 -12 60 0 11 5 16 9 12 9 -5 1 -1 11 7 23 14 19 14 23 -2 35 -12
10 -12 12 -2 8 8 -4 4 3 -9 14 -27 24 -37 25 -71 8z"/>
<path d="M18214 10795 c-4 -8 -10 -12 -15 -9 -12 7 -11 -57 0 -75 5 -8 14 -10
21 -6 9 5 11 4 6 -3 -5 -9 3 -11 26 -8 18 3 37 5 42 5 4 1 6 10 3 21 -3 11 -1
18 4 14 16 -10 10 35 -8 56 -20 24 -71 27 -79 5z"/>
<path d="M8793 10633 c0 -123 -3 -167 -13 -176 -9 -9 -11 -9 -6 0 3 6 -2 16
-11 22 -10 6 -15 11 -10 11 11 0 -35 43 -61 57 -13 7 -29 10 -35 6 -6 -4 -7
-1 -2 7 6 10 1 12 -19 8 -14 -3 -26 -1 -26 4 0 14 -151 3 -160 -12 -4 -6 -11
-12 -16 -12 -23 -2 -44 -11 -44 -19 0 -5 -6 -8 -12 -6 -7 1 -12 -4 -10 -11 1
-6 -4 -11 -10 -10 -7 2 -12 -5 -12 -14 1 -10 -3 -15 -8 -12 -11 7 -39 -27 -31
-39 2 -4 1 -6 -4 -5 -4 2 -8 0 -8 -3 0 -3 -6 -13 -13 -22 -8 -9 -10 -22 -6
-28 4 -7 3 -9 -3 -6 -30 19 -24 -223 5 -242 5 -3 12 -16 16 -29 4 -12 12 -20
17 -17 5 4 6 -2 2 -11 -5 -13 -3 -16 10 -11 10 4 16 2 14 -6 -1 -7 4 -11 10
-10 7 2 12 -3 10 -10 -1 -6 4 -11 11 -9 6 1 11 -4 10 -10 -2 -7 3 -12 10 -10
6 1 12 -3 12 -9 0 -5 4 -8 9 -5 5 4 11 2 13 -4 4 -13 41 -22 90 -24 20 -1 34
-4 31 -8 -2 -5 1 -8 6 -8 6 0 11 3 11 8 0 4 19 7 42 8 23 0 43 5 45 11 3 7 10
10 18 7 7 -3 23 4 34 15 12 12 28 21 36 21 14 0 20 12 16 34 -1 5 6 6 15 2 12
-5 15 -2 10 10 -5 13 -4 14 7 6 8 -7 12 -28 11 -56 l-2 -44 38 1 38 1 0 413 0
413 -38 -2 -38 -1 1 -164z m-180 -127 c-3 -5 6 -7 21 -4 19 4 29 1 33 -9 3 -8
12 -12 20 -9 8 3 12 2 9 -2 -6 -11 30 -42 39 -34 3 4 3 -2 -1 -13 -6 -14 -4
-17 9 -12 9 3 16 3 16 -1 -2 -15 14 -52 20 -48 6 4 8 -4 12 -59 1 -14 5 -27 9
-30 4 -3 5 -19 2 -37 -2 -18 -5 -43 -6 -55 0 -11 -4 -19 -8 -17 -4 3 -10 -7
-14 -21 -3 -14 -11 -25 -16 -25 -6 0 -7 -7 -4 -16 3 -8 2 -13 -3 -10 -11 7
-33 -19 -24 -28 4 -4 0 -4 -10 0 -10 3 -17 1 -17 -5 0 -6 -6 -10 -12 -8 -7 1
-12 -3 -11 -10 2 -7 -3 -10 -11 -7 -7 3 -20 -1 -27 -8 -18 -17 -114 -15 -154
2 -16 7 -36 12 -44 11 -8 -1 -10 2 -5 10 5 9 2 10 -10 6 -10 -4 -15 -3 -11 3
3 5 -5 15 -19 21 -13 6 -27 22 -31 36 -3 13 -12 26 -19 29 -8 3 -12 14 -8 26
3 12 1 19 -4 16 -14 -9 -8 137 7 171 8 17 17 31 21 31 5 0 8 5 8 10 0 6 14 25
32 43 17 17 28 26 24 20 -4 -8 5 -6 23 4 16 10 28 20 26 24 -3 3 7 4 22 1 14
-3 23 -1 20 4 -3 5 19 9 48 9 29 0 51 -4 48 -9z"/>
<path d="M12513 10386 l-1 -413 38 -1 37 -2 0 414 1 414 -38 0 -37 1 0 -413z"/>
<path d="M21934 10680 c1 -122 6 -114 -69 -112 -28 1 -31 -2 -33 -34 l-3 -35
53 4 53 4 -2 -267 -3 -267 38 1 37 1 0 265 0 265 62 -2 62 -2 -1 34 -1 34 -59
-2 -58 -2 -1 40 c-1 22 -1 72 0 111 l2 71 -40 1 -39 2 2 -110z"/>
<path d="M9872 10568 c-20 -5 -30 -13 -26 -20 5 -8 2 -9 -9 -5 -10 3 -17 2
-17 -3 0 -6 -6 -10 -13 -10 -17 0 -68 -60 -61 -71 3 -5 0 -8 -8 -7 -7 2 -12
-3 -10 -9 1 -7 -3 -13 -9 -13 -6 0 -8 -7 -5 -16 3 -8 2 -13 -3 -10 -11 7 -24
-41 -15 -56 4 -6 3 -8 -3 -5 -6 4 -10 -25 -10 -78 0 -46 3 -82 8 -80 4 3 5 -4
2 -16 -4 -12 3 -32 16 -49 11 -16 21 -33 21 -38 0 -12 47 -51 54 -45 3 4 6 -1
6 -9 0 -17 26 -31 41 -22 5 3 12 -2 15 -10 3 -9 10 -13 15 -10 5 3 9 0 9 -6 0
-7 6 -10 14 -7 7 3 18 1 23 -4 4 -4 33 -9 63 -9 30 0 65 0 78 0 13 0 21 4 18
9 -4 5 4 7 16 3 13 -3 19 -1 15 5 -5 7 1 9 15 5 14 -3 19 -1 14 6 -5 8 -2 10
8 6 11 -4 16 0 16 10 0 9 7 16 15 16 8 0 15 5 15 11 0 5 5 7 11 4 6 -4 13 2
16 14 3 12 12 21 21 21 8 0 12 3 9 6 -3 4 0 16 8 28 19 27 19 40 -1 32 -8 -3
-12 -2 -9 4 3 5 -5 14 -17 21 -13 6 -20 8 -16 4 5 -5 -1 -14 -12 -22 -11 -8
-20 -21 -20 -29 0 -8 -6 -13 -12 -12 -7 2 -12 -5 -12 -14 1 -10 -2 -16 -6 -13
-5 3 -15 -2 -24 -10 -8 -9 -19 -16 -23 -17 -4 0 -19 -5 -33 -10 -32 -13 -140
-16 -140 -4 0 4 -6 6 -14 3 -7 -3 -19 0 -25 6 -6 6 -11 7 -11 3 0 -5 -11 3
-24 17 -13 14 -26 23 -29 21 -3 -3 -8 4 -12 15 -3 12 -11 18 -17 15 -7 -4 -8
-2 -4 4 7 12 -17 56 -25 48 -2 -2 -4 18 -4 45 0 36 4 49 15 50 8 0 128 1 266
1 l250 1 2 34 c2 18 -2 33 -8 33 -5 0 -9 3 -9 8 5 27 -2 52 -13 46 -8 -5 -9
-2 -5 9 3 9 -1 23 -9 32 -9 8 -13 15 -9 15 3 0 1 9 -5 20 -6 11 -18 20 -26 20
-8 0 -12 5 -9 10 3 6 3 10 -2 10 -4 0 -24 14 -43 30 -31 26 -55 35 -82 31 -5
0 -8 3 -8 8 0 11 -144 10 -188 -1z m158 -62 c0 -4 7 -5 16 -2 8 3 12 2 9 -4
-3 -6 2 -10 12 -10 10 0 28 -7 39 -15 12 -8 25 -11 29 -7 3 4 5 0 3 -8 -1 -8
3 -14 10 -12 6 1 11 -1 11 -5 -3 -21 2 -33 12 -28 6 4 10 1 8 -6 -3 -28 1 -40
13 -33 7 4 8 3 4 -4 -4 -6 -3 -20 3 -29 8 -17 -4 -18 -219 -18 -180 0 -226 3
-218 12 6 7 8 20 4 28 -4 11 -2 14 6 9 7 -5 9 0 6 14 -4 12 -3 20 2 17 4 -3
14 3 21 12 12 14 12 16 -1 9 -8 -4 -5 1 8 10 12 9 22 23 22 31 0 9 6 13 14 10
8 -3 22 1 33 8 10 8 28 15 41 15 12 0 22 3 22 8 0 4 20 7 45 7 25 0 45 -4 45
-9z"/>
<path d="M11310 10570 c0 -5 -7 -7 -15 -3 -9 3 -25 -3 -36 -13 -12 -11 -23
-18 -25 -16 -12 7 -24 0 -18 -10 4 -7 3 -8 -5 -4 -13 8 -94 -71 -86 -84 3 -5
0 -12 -6 -16 -8 -5 -10 -2 -5 7 4 8 0 5 -9 -6 -9 -11 -14 -28 -11 -38 2 -9 1
-15 -4 -12 -14 8 -17 -17 -15 -105 3 -113 15 -158 37 -144 6 4 8 3 5 -3 -9
-15 16 -64 30 -58 7 2 12 -1 10 -8 -1 -7 4 -11 11 -9 8 1 11 -2 7 -8 -3 -5 -1
-10 5 -10 6 0 9 -4 6 -9 -5 -8 29 -25 47 -22 4 1 7 -4 7 -10 0 -6 7 -8 16 -5
10 4 13 2 8 -6 -5 -7 1 -9 19 -6 16 3 24 1 20 -5 -3 -6 6 -8 26 -5 18 3 34 1
37 -4 3 -5 11 -5 17 -1 6 4 24 6 40 5 16 -1 26 2 23 7 -3 5 0 9 7 8 39 -1 57
5 57 19 0 8 5 12 10 9 6 -3 10 -1 10 4 0 6 3 10 8 10 19 -3 33 2 27 10 -3 5 4
12 15 16 11 4 18 10 15 15 -3 5 -1 11 5 15 9 5 16 -53 11 -92 -1 -7 13 -12 37
-11 l40 0 -1 298 0 298 -39 -1 -39 -1 2 -53 c3 -65 -4 -73 -27 -33 -10 16 -24
28 -31 26 -7 -3 -10 1 -6 9 5 15 -34 37 -49 28 -5 -2 -8 1 -8 7 0 7 -7 9 -16
6 -10 -4 -13 -2 -8 6 5 7 -1 9 -19 6 -15 -3 -24 -1 -21 3 3 5 -22 9 -55 9 -34
0 -61 -4 -61 -10z m120 -64 c0 -4 8 -6 18 -4 10 3 24 -1 31 -9 7 -8 19 -12 27
-9 8 3 13 2 13 -2 -3 -20 2 -33 11 -27 6 3 10 1 10 -5 0 -6 4 -8 10 -5 6 3 7
-1 4 -9 -4 -11 0 -16 10 -16 9 0 16 -7 16 -16 0 -9 5 -12 12 -8 7 4 8 3 4 -4
-4 -6 0 -27 8 -46 8 -19 12 -37 9 -40 -3 -3 -2 -11 4 -18 10 -14 10 -15 -1
-75 -4 -24 -12 -45 -17 -49 -5 -3 -7 -9 -4 -14 3 -4 -2 -10 -10 -14 -8 -3 -15
-12 -15 -21 0 -8 -6 -14 -12 -13 -7 2 -12 -5 -12 -14 1 -10 -2 -16 -6 -13 -12
8 -41 -6 -34 -16 3 -5 2 -9 -3 -8 -4 1 -21 -3 -38 -10 -35 -15 -134 -20 -142
-8 -3 5 -12 6 -20 3 -8 -3 -12 -2 -9 3 5 8 -29 25 -46 22 -5 -1 -8 4 -8 10 0
6 -7 8 -17 5 -10 -4 -14 -4 -10 0 9 10 -13 35 -25 28 -5 -3 -8 0 -7 7 2 8 -5
30 -15 49 -23 42 -27 180 -7 204 7 8 10 20 6 26 -4 6 -1 9 7 8 7 -2 12 3 11
10 -2 6 2 12 8 12 6 0 8 7 5 16 -3 8 -2 12 4 9 6 -3 10 -1 10 5 0 6 4 9 9 5 5
-3 16 2 24 10 9 8 21 15 27 15 6 0 9 4 5 9 -3 6 3 10 12 10 23 0 51 6 58 12 8
9 85 5 85 -5z"/>
<path d="M14684 10571 c3 -4 -5 -7 -18 -6 -30 4 -89 -31 -80 -47 4 -7 3 -8 -4
-4 -14 8 -53 -24 -45 -37 3 -6 1 -7 -5 -3 -5 3 -13 0 -15 -6 -5 -13 -11 51 -8
83 1 13 -6 16 -32 16 l-34 -1 0 -407 0 -408 33 2 33 2 -2 162 -2 161 25 -24
c53 -51 85 -74 98 -69 8 3 10 0 6 -7 -5 -7 0 -9 14 -6 12 4 22 2 22 -3 0 -6
18 -8 40 -6 21 2 37 0 34 -5 -3 -4 0 -8 5 -8 6 0 11 4 11 8 0 5 14 7 30 4 17
-2 30 0 30 6 0 6 10 8 22 4 16 -4 19 -2 13 8 -5 8 -4 11 3 7 14 -9 43 3 36 14
-3 5 3 6 12 2 13 -5 16 -3 11 10 -3 9 -3 16 1 15 15 -4 52 24 46 34 -4 6 -3 8
3 5 14 -9 46 40 37 55 -4 7 -3 8 4 4 11 -6 14 0 11 20 0 4 5 10 12 15 7 4 13
28 13 52 1 25 4 43 7 41 4 -2 7 8 7 21 0 14 -4 25 -9 25 -5 0 -6 7 -3 15 4 8
1 22 -6 30 -7 8 -10 15 -7 15 3 0 1 13 -4 30 -6 16 -15 27 -20 24 -5 -3 -7 1
-4 8 6 19 -21 52 -36 42 -8 -4 -10 -3 -5 5 9 14 -41 64 -55 56 -5 -4 -9 -1 -9
5 0 6 -5 8 -10 5 -6 -4 -9 -1 -8 7 2 7 -5 12 -14 12 -10 -1 -18 2 -18 8 0 5
-14 7 -30 4 -17 -2 -28 0 -24 5 3 5 -22 9 -56 9 -34 0 -59 -4 -56 -9z m86 -62
c0 -7 78 -23 93 -20 5 1 6 -3 2 -9 -6 -9 7 -14 28 -11 4 0 6 -5 5 -11 -2 -7 2
-12 9 -11 7 2 10 -4 7 -12 -4 -9 0 -15 10 -15 9 0 16 -7 16 -16 0 -9 5 -12 12
-8 7 4 8 3 4 -5 -4 -6 -2 -19 6 -28 7 -9 12 -18 11 -20 -7 -8 -2 -34 5 -30 4
3 7 -15 7 -39 0 -24 -3 -44 -7 -44 -3 0 -5 -11 -4 -25 2 -13 0 -22 -4 -20 -11
7 -22 -24 -13 -37 4 -7 1 -8 -7 -3 -10 6 -12 4 -7 -9 5 -11 3 -15 -5 -10 -8 5
-9 2 -5 -10 4 -11 3 -15 -4 -10 -12 7 -51 -31 -41 -40 3 -4 -1 -4 -9 -1 -9 3
-22 -1 -29 -10 -7 -8 -19 -15 -26 -15 -8 0 -14 -3 -14 -7 0 -10 -112 -9 -128
1 -7 4 -17 4 -24 0 -7 -5 -8 -3 -3 6 6 10 4 12 -9 7 -10 -4 -15 -3 -11 3 6 9
-25 15 -50 10 -5 -1 -7 1 -3 5 9 9 -23 45 -34 39 -5 -3 -8 -2 -7 3 3 20 -2 34
-11 28 -6 -3 -7 1 -4 9 3 9 2 16 -4 16 -6 0 -8 10 -4 22 3 11 1 19 -4 16 -14
-9 -9 149 5 166 7 8 10 20 6 26 -4 6 -3 9 2 8 4 -2 9 1 10 5 1 5 12 18 25 29
13 11 22 25 20 30 -1 5 2 7 8 3 5 -3 10 -1 10 4 0 6 3 10 8 10 21 -4 32 2 26
13 -5 7 -2 9 8 5 9 -3 23 0 32 6 17 12 96 17 96 6z"/>
<path d="M15977 10562 c-17 -8 -26 -19 -23 -27 3 -9 0 -12 -9 -9 -13 6 -38
-28 -30 -40 3 -3 0 -2 -6 2 -5 5 -11 25 -12 45 -2 34 -4 37 -33 37 l-32 0 1
-299 0 -299 33 1 33 1 1 111 c3 238 5 285 14 285 4 0 6 11 4 25 -3 13 -1 22 3
19 8 -5 12 10 7 21 -2 2 6 11 17 19 11 9 16 16 12 16 -4 0 -2 6 5 14 7 8 16
12 21 9 4 -2 7 0 7 5 0 6 10 8 22 4 16 -4 19 -2 13 9 -7 11 -6 12 6 2 13 -10
65 -15 54 -5 -2 2 6 13 18 25 20 20 20 22 4 25 -9 2 -17 8 -17 13 0 14 -80 8
-113 -9z"/>
<path d="M17040 10571 c0 -4 -7 -8 -15 -9 -8 -1 -22 -3 -30 -4 -8 -1 -15 -6
-15 -11 0 -6 -3 -7 -7 -4 -9 9 -34 -13 -27 -24 3 -5 2 -9 -3 -8 -18 4 -43 -14
-43 -33 0 -10 -4 -16 -10 -13 -11 7 -52 -54 -44 -67 3 -4 0 -8 -6 -8 -6 0 -8
-11 -6 -25 3 -14 1 -23 -3 -21 -4 3 -8 -33 -8 -79 0 -47 4 -85 9 -85 5 0 6 -5
3 -10 -9 -15 5 -51 17 -44 7 4 8 2 4 -4 -8 -13 24 -53 36 -45 5 3 8 -3 6 -13
-2 -12 2 -18 10 -16 8 1 11 -2 7 -7 -7 -12 29 -33 40 -23 5 4 5 1 1 -5 -6 -12
0 -15 20 -12 4 0 10 -5 14 -12 4 -6 21 -12 38 -13 17 0 28 -5 25 -10 -3 -5 10
-7 30 -4 20 2 33 0 31 -4 -3 -4 2 -8 11 -8 9 0 14 4 11 9 -3 4 6 6 19 3 14 -2
33 2 42 9 9 8 14 9 10 3 -4 -8 4 -8 28 0 19 6 35 15 35 19 0 5 5 5 10 2 6 -3
10 0 10 8 0 8 11 18 25 21 14 4 23 11 20 16 -3 6 -2 10 4 10 14 0 62 71 55 82
-3 4 -1 8 3 8 11 0 34 60 27 71 -3 5 -1 9 5 9 8 0 9 84 1 100 -3 7 -7 22 -8
38 -1 7 -6 11 -11 7 -6 -3 -8 5 -5 19 2 15 -4 34 -18 51 -58 69 -78 86 -89 79
-8 -4 -9 -3 -5 4 9 16 -35 43 -62 37 -12 -2 -20 0 -17 4 3 5 -1 11 -8 14 -21
8 -167 6 -167 -2z m110 -65 c0 -4 9 -6 20 -3 11 3 20 1 20 -5 0 -6 9 -8 20 -5
11 3 20 1 20 -5 0 -6 7 -7 16 -4 8 3 12 2 9 -4 -3 -5 3 -15 15 -22 11 -7 20
-19 20 -26 0 -8 6 -12 15 -8 8 3 14 2 13 -2 -3 -17 25 -71 34 -66 6 4 8 -1 3
-15 -3 -11 -3 -26 1 -33 4 -7 8 -24 8 -38 0 -14 -4 -31 -8 -38 -4 -7 -4 -21
-1 -32 4 -11 2 -20 -4 -20 -6 0 -11 -6 -11 -13 0 -8 -9 -24 -20 -37 -11 -12
-17 -27 -14 -32 3 -4 0 -7 -8 -6 -7 2 -12 -2 -11 -9 2 -7 -4 -10 -12 -7 -8 4
-15 1 -15 -5 0 -6 -6 -10 -12 -8 -7 1 -12 -4 -10 -11 1 -8 -2 -11 -8 -7 -5 3
-16 3 -22 -1 -30 -19 -128 -22 -155 -5 -13 7 -23 9 -23 5 0 -5 -4 -3 -9 4 -4
7 -17 14 -29 15 -11 0 -19 4 -17 7 5 9 -22 29 -30 22 -4 -4 -6 -2 -5 3 5 22
-1 36 -12 29 -6 -4 -8 -3 -4 4 3 6 1 16 -6 24 -16 16 -21 36 -19 66 0 13 -3
20 -9 17 -5 -3 -8 0 -5 7 2 7 6 31 9 53 7 65 18 99 38 113 10 7 18 20 18 28 0
8 6 13 13 12 6 -2 11 4 9 12 -2 8 0 12 3 8 10 -10 47 11 40 22 -3 5 4 9 15 9
11 1 29 1 40 2 11 0 20 3 20 7 0 4 14 7 30 7 17 0 30 -4 30 -9z"/>
<path d="M19300 10570 c0 -4 -9 -6 -20 -3 -11 3 -20 0 -20 -6 0 -6 -3 -10 -7
-9 -14 4 -73 -36 -73 -49 0 -7 -6 -12 -12 -10 -7 1 -12 -6 -11 -16 0 -10 -2
-16 -5 -13 -8 9 -33 -15 -26 -25 3 -5 0 -9 -6 -9 -7 0 -9 -7 -6 -16 3 -8 2
-13 -3 -10 -5 3 -12 -2 -16 -12 -10 -24 -15 -213 -6 -207 5 2 6 -7 3 -20 -2
-15 0 -25 7 -25 7 0 9 -4 6 -10 -3 -5 -1 -10 4 -10 6 0 11 -7 11 -16 0 -18 68
-91 90 -96 8 -2 21 -9 29 -16 7 -7 20 -11 28 -8 8 4 11 1 7 -5 -4 -8 1 -9 15
-4 13 4 21 2 21 -5 0 -8 12 -11 34 -8 19 2 32 0 30 -4 -3 -4 2 -8 11 -8 9 0
14 4 11 9 -4 5 3 7 14 4 26 -7 92 6 85 17 -3 4 4 6 15 3 12 -3 20 0 20 6 0 7
5 9 10 6 9 -6 14 7 11 27 0 4 6 5 14 2 8 -4 15 -1 15 6 0 6 5 8 10 5 6 -3 15
6 20 20 5 14 14 24 19 21 11 -7 23 22 14 36 -3 7 -1 8 5 4 7 -4 12 -1 12 6 0
7 -9 19 -21 26 -17 11 -20 11 -14 0 3 -7 -1 -4 -9 6 -13 16 -16 17 -16 4 0 -9
-7 -18 -15 -22 -8 -3 -12 -12 -9 -21 4 -11 2 -14 -9 -9 -10 3 -20 -3 -27 -16
-6 -12 -25 -26 -41 -32 -16 -5 -26 -14 -23 -19 3 -5 -3 -6 -12 -2 -10 3 -15 2
-12 -3 7 -11 -113 -11 -130 0 -7 4 -22 4 -33 1 -14 -5 -19 -3 -15 4 4 6 -4 13
-19 17 -14 3 -24 9 -21 12 3 2 -6 13 -19 24 -14 11 -25 26 -25 34 0 8 -4 14
-9 14 -12 0 -23 37 -24 85 l-2 40 266 -1 266 -1 1 30 c0 16 -6 40 -14 52 -8
12 -12 24 -9 27 8 7 -37 90 -62 116 -13 12 -23 20 -23 17 0 -3 -14 8 -31 25
-18 16 -42 30 -55 30 -13 0 -25 4 -28 9 -7 11 -166 12 -166 1z m142 -63 c9 -1
14 -5 11 -10 -3 -5 3 -7 13 -5 11 2 28 -4 38 -14 10 -9 23 -15 28 -12 5 3 7 0
6 -8 -2 -7 3 -12 10 -10 6 1 12 -1 11 -5 -3 -19 14 -52 23 -46 6 3 8 0 6 -8
-3 -8 0 -25 7 -39 l13 -25 -224 1 c-124 1 -227 4 -231 8 -3 3 -1 6 6 6 8 0 11
8 8 20 -3 13 -1 18 6 13 6 -4 8 2 5 15 -4 12 -3 20 2 17 4 -3 14 3 21 12 12
14 12 16 -1 9 -8 -4 -5 1 8 10 12 9 22 23 22 31 0 9 6 13 14 10 7 -3 26 3 41
13 15 10 35 16 43 12 8 -3 13 -1 9 4 -5 8 27 9 105 1z"/>
<path d="M20704 10572 c3 -5 -6 -7 -21 -4 -19 4 -24 2 -18 -8 6 -9 4 -11 -4
-5 -8 4 -24 -1 -39 -12 -15 -11 -35 -22 -45 -26 -10 -4 -15 -11 -12 -17 3 -5
-1 -10 -9 -10 -18 0 -39 -34 -28 -45 4 -5 2 -5 -4 -2 -14 8 -47 -38 -41 -56 2
-7 -2 -17 -9 -24 -22 -23 -7 -242 17 -227 5 3 6 -1 4 -8 -6 -16 34 -73 66 -96
18 -12 21 -12 14 -1 -4 8 2 4 15 -9 12 -13 29 -21 37 -18 8 3 11 1 8 -4 -5 -9
-1 -11 20 -10 3 1 12 -6 20 -14 9 -8 32 -13 59 -13 24 1 42 -2 39 -7 -4 -5 6
-6 23 -1 16 4 39 7 52 6 13 0 21 2 19 7 -3 4 8 8 25 8 17 1 34 7 38 13 4 7 10
12 14 12 20 -3 26 0 20 11 -4 7 -3 8 5 4 7 -5 26 6 47 28 35 36 45 62 19 52
-8 -3 -14 0 -12 6 5 25 -30 16 -66 -17 -21 -19 -45 -35 -53 -35 -8 0 -14 -4
-14 -10 0 -5 -7 -7 -15 -4 -8 3 -19 3 -25 -1 -15 -9 -140 -12 -140 -4 0 4 -7
10 -16 13 -10 4 -13 2 -9 -7 4 -6 -1 -3 -9 7 -9 11 -16 16 -16 12 0 -4 -7 0
-16 9 -9 9 -23 14 -30 11 -7 -3 -16 0 -20 6 -5 7 -2 8 7 4 8 -4 6 -1 -3 7 -10
8 -18 20 -18 26 0 7 -4 9 -10 6 -6 -3 -7 1 -4 9 3 9 1 16 -5 16 -6 0 -11 7
-11 16 0 8 -3 13 -7 11 -12 -7 -7 157 4 179 6 10 8 25 5 33 -3 8 0 11 7 7 6
-4 12 -2 12 3 1 6 2 17 3 24 0 6 8 12 16 12 8 1 14 7 12 14 -1 7 2 10 7 7 12
-8 33 18 23 29 -4 5 -2 5 5 2 16 -10 44 3 36 16 -3 6 -1 7 6 3 6 -4 19 -2 28
6 14 11 16 11 8 -1 -6 -10 -4 -12 6 -6 16 11 122 13 129 3 3 -3 14 -8 25 -10
11 -1 29 -11 40 -21 10 -10 25 -15 33 -12 7 2 10 1 7 -4 -3 -6 1 -13 8 -18 8
-4 18 -16 23 -26 9 -16 12 -15 44 8 30 22 32 30 8 26 -5 0 -7 3 -5 8 3 13 -54
82 -64 75 -5 -3 -9 0 -9 6 0 6 -4 8 -10 5 -5 -3 -10 -2 -10 3 0 13 -49 22
-153 28 -53 3 -87 1 -83 -4z"/>
<path d="M24075 10575 c-5 -2 -23 -6 -38 -9 -15 -4 -25 -10 -23 -15 3 -5 -2
-8 -12 -7 -9 0 -16 -5 -14 -12 1 -8 -3 -12 -10 -9 -18 6 -50 -12 -43 -24 4 -5
1 -9 -5 -9 -14 0 -49 -40 -50 -56 0 -7 -7 -15 -16 -18 -8 -3 -13 -10 -10 -14
3 -5 -1 -20 -9 -35 -14 -28 -17 -174 -4 -183 5 -3 6 -11 2 -19 -3 -8 0 -15 6
-15 6 0 10 -3 10 -7 -3 -20 2 -34 10 -29 5 3 8 -2 7 -12 0 -9 5 -16 12 -14 8
1 11 -2 7 -8 -8 -13 19 -40 40 -40 9 0 14 -4 11 -9 -6 -9 50 -36 67 -32 4 0 7
-2 7 -7 0 -14 55 -32 92 -29 20 2 35 0 32 -5 -3 -4 4 -8 16 -8 12 0 19 3 17 8
-3 4 9 7 26 8 70 1 151 37 191 84 32 39 32 43 -1 61 -20 11 -27 11 -30 2 -3
-7 -10 -13 -18 -13 -7 0 -19 -8 -26 -17 -12 -15 -12 -16 1 -8 9 5 12 5 7 -1
-5 -5 -12 -10 -15 -10 -28 -6 -51 -18 -47 -24 2 -4 -7 -5 -22 -2 -14 3 -23 1
-20 -4 3 -5 -24 -8 -61 -7 -106 4 -112 5 -107 14 5 8 -33 25 -47 21 -5 -1 -8
3 -8 9 0 6 -7 8 -16 5 -8 -3 -12 -2 -9 4 3 6 -1 13 -9 16 -9 3 -16 12 -16 19
0 7 -9 24 -20 37 -15 20 -20 44 -22 116 -2 49 0 88 3 86 10 -6 20 26 12 38 -3
7 -1 8 5 4 7 -4 12 -2 12 4 0 15 80 90 97 90 8 0 12 4 9 9 -3 4 6 7 19 5 14
-1 25 1 25 4 0 4 27 7 60 7 33 0 60 -3 60 -8 0 -4 11 -5 25 -3 14 3 23 1 20
-4 -6 -10 23 -22 36 -14 5 3 8 0 7 -8 -2 -7 5 -12 15 -11 10 0 16 -2 13 -5 -9
-9 15 -32 27 -25 6 3 7 1 3 -5 -4 -7 -2 -12 4 -12 6 0 8 -5 4 -11 -4 -8 0 -8
15 0 11 7 21 16 21 21 0 6 3 9 8 8 4 -2 7 2 7 7 0 6 -4 9 -8 7 -5 -1 -6 1 -3
6 3 5 -10 26 -29 47 -19 21 -35 34 -35 31 0 -4 -7 0 -16 9 -10 9 -25 14 -35
12 -10 -3 -20 0 -22 7 -3 10 -164 19 -192 11z"/>
<path d="M25428 10572 c-10 -2 -18 -7 -18 -12 0 -4 -8 -6 -18 -3 -10 2 -30 -7
-47 -24 -17 -15 -33 -28 -37 -28 -5 0 -7 -4 -5 -8 1 -5 -6 -13 -16 -18 -9 -6
-14 -15 -11 -21 4 -6 3 -8 -4 -4 -10 6 -38 -38 -49 -79 -10 -36 -13 -195 -4
-195 5 0 7 -10 3 -22 -4 -16 -2 -19 8 -13 9 5 11 4 6 -4 -10 -16 22 -63 37
-55 7 4 9 4 5 -1 -11 -12 32 -67 48 -61 8 3 13 0 11 -7 -1 -7 6 -11 15 -11 10
1 16 -2 13 -6 -7 -11 24 -22 37 -13 7 4 8 1 3 -7 -6 -10 -1 -12 18 -8 15 3 24
1 21 -3 -3 -5 8 -9 25 -9 16 0 37 -3 47 -7 11 -4 15 -2 11 4 -4 6 3 8 18 5 34
-6 77 6 69 20 -4 7 -3 8 5 4 16 -10 64 2 56 14 -3 5 4 11 15 15 11 3 20 11 20
16 0 6 5 7 10 4 6 -3 10 0 10 8 0 8 7 18 16 21 9 4 14 9 11 12 -3 3 1 13 9 22
8 10 14 21 14 25 -1 4 6 15 15 24 9 8 14 22 11 30 -4 9 -2 11 6 7 7 -5 9 1 6
19 -3 15 -1 24 4 21 9 -6 5 69 -5 111 -3 11 -6 24 -6 28 -1 5 -4 6 -8 4 -5 -3
-8 8 -9 24 -1 31 -36 73 -50 61 -4 -4 -4 -1 0 5 9 16 -40 67 -56 57 -6 -4 -8
-3 -5 3 4 6 -1 17 -10 24 -14 12 -16 12 -9 -1 4 -8 1 -7 -8 4 -8 10 -21 16
-28 14 -7 -3 -19 1 -26 8 -12 12 -128 16 -174 6z m110 -66 c7 -4 22 -4 33 -1
16 5 19 4 14 -6 -6 -9 -2 -11 13 -7 12 4 22 2 22 -3 0 -5 7 -9 15 -9 8 0 15
-7 15 -16 0 -10 6 -14 15 -10 8 3 14 2 14 -2 -4 -23 3 -34 17 -28 8 3 13 2 11
-2 -6 -9 28 -73 35 -67 3 3 4 -5 3 -18 -1 -12 0 -26 3 -32 8 -14 8 -84 0 -79
-4 3 -7 -4 -7 -13 -1 -39 -5 -53 -13 -53 -5 0 -7 -4 -4 -9 3 -5 -1 -12 -10
-15 -8 -3 -13 -9 -10 -14 5 -8 -51 -57 -66 -57 -5 0 -12 -4 -16 -10 -7 -9 -14
-12 -52 -20 -8 -2 -15 -4 -15 -5 0 -1 -24 -3 -52 -4 -29 0 -53 3 -53 7 0 5 -4
5 -10 2 -5 -3 -10 -1 -10 5 0 6 -4 8 -10 5 -5 -3 -10 -1 -10 4 0 6 -7 11 -15
11 -18 0 -58 37 -68 63 -3 9 -11 17 -17 17 -6 0 -8 5 -5 10 3 6 1 10 -5 10 -6
0 -8 5 -5 10 3 6 3 10 -2 10 -4 0 -9 15 -9 33 -1 17 -4 44 -6 60 -3 15 -2 27
3 27 4 0 8 10 8 23 1 50 3 57 13 57 5 0 8 7 4 15 -3 8 -2 14 2 12 4 -1 22 14
41 33 18 19 37 34 42 33 5 -2 9 2 9 7 0 6 7 10 15 10 8 0 15 4 15 9 0 5 11 8
25 5 14 -2 25 -1 25 4 0 9 41 8 58 -2z"/>
<path d="M26836 10573 c-5 -5 -33 -11 -55 -12 -8 -1 -11 -7 -7 -17 3 -8 2 -12
-4 -9 -11 7 -60 -34 -60 -51 0 -6 -6 -14 -13 -17 -9 -3 -12 9 -10 48 l2 52
-39 0 -38 0 0 -297 0 -298 37 2 36 1 3 175 c5 218 5 229 15 223 4 -2 7 -1 8 4
3 30 9 48 19 51 5 2 8 7 5 12 -3 5 4 12 16 15 12 4 18 12 15 21 -3 7 -2 13 2
13 25 -4 52 3 47 11 -3 5 0 7 8 4 8 -3 18 -1 21 4 3 5 18 7 33 5 16 -3 36 -5
45 -6 9 -1 14 -5 12 -9 -3 -4 7 -10 21 -14 14 -3 25 -10 25 -16 0 -5 4 -6 10
-3 5 3 7 0 4 -8 -3 -8 -1 -18 5 -22 6 -3 11 -17 11 -31 0 -13 3 -24 8 -24 4 0
6 -92 6 -205 l-1 -205 37 0 37 0 -1 189 c-1 104 2 187 7 184 6 -4 12 37 8 60
0 4 4 7 10 7 6 0 8 7 5 16 -3 8 -2 12 4 9 6 -3 10 1 10 9 0 9 7 16 16 16 8 0
12 4 9 10 -3 5 0 7 9 4 8 -3 20 3 27 14 7 12 19 17 31 14 10 -2 18 0 18 4 0 5
18 9 39 9 22 0 37 -3 34 -7 -2 -5 7 -8 21 -8 14 0 26 -4 26 -9 0 -5 11 -23 25
-39 13 -16 22 -32 18 -36 -3 -3 -2 -6 3 -6 11 0 12 -18 15 -251 l1 -185 39 -1
39 -1 -5 197 c-2 108 -4 206 -5 219 0 13 -4 21 -9 18 -4 -3 -6 6 -3 21 4 19 2
24 -8 18 -9 -5 -11 -4 -6 4 14 21 -31 79 -85 109 -35 19 -156 31 -145 14 3 -5
-6 -7 -21 -4 -18 3 -24 1 -19 -6 5 -8 2 -10 -8 -6 -9 3 -16 1 -16 -5 0 -6 -6
-11 -13 -11 -16 0 -48 -37 -64 -72 -12 -27 -47 -41 -37 -15 2 7 -4 22 -15 34
-11 11 -18 23 -15 26 9 9 -49 48 -63 43 -8 -3 -16 1 -19 8 -4 10 -22 14 -60
14 -30 -1 -56 -3 -58 -5z"/>
<path d="M1570 10560 c0 -6 4 -9 9 -6 5 4 7 -4 3 -16 -3 -14 -1 -19 6 -14 8 5
10 2 6 -8 -3 -9 -1 -16 6 -16 6 0 9 -4 5 -9 -3 -5 -1 -12 5 -16 6 -4 8 -11 5
-16 -4 -5 -1 -9 5 -9 6 0 9 -4 5 -9 -3 -5 0 -15 7 -23 7 -7 15 -22 16 -33 2
-10 11 -25 20 -33 10 -7 11 -11 5 -7 -9 4 -11 1 -7 -9 3 -9 11 -16 16 -16 6 0
8 -6 5 -14 -3 -8 1 -22 8 -33 8 -10 15 -26 15 -35 0 -10 5 -18 10 -18 5 0 9
-3 9 -7 -3 -20 2 -34 10 -29 5 4 7 -4 3 -16 -3 -14 -1 -19 6 -14 8 5 10 2 6
-8 -3 -9 -1 -16 5 -16 6 0 10 -3 10 -7 -3 -20 2 -34 10 -29 5 4 7 -3 4 -14 -3
-12 0 -20 6 -20 7 0 10 -4 7 -9 -4 -5 0 -11 6 -13 7 -3 13 -11 14 -19 4 -53 3
-52 20 -38 8 7 13 21 11 31 -3 10 -2 16 3 13 10 -6 41 75 33 88 -3 6 -1 7 5 3
10 -6 28 30 24 47 -1 4 3 7 9 7 5 0 8 4 4 9 -3 5 0 13 6 16 5 4 8 14 5 22 -3
8 -1 11 4 8 9 -6 14 8 11 28 0 4 4 7 10 7 6 0 9 9 6 20 -3 11 -1 18 3 15 8 -5
26 33 22 48 -1 4 3 7 9 7 6 0 9 7 5 15 -3 8 -1 15 4 15 5 0 11 8 13 18 4 16 5
16 6 0 0 -10 6 -18 11 -18 6 0 9 -3 9 -7 -4 -23 2 -43 11 -38 5 3 7 0 4 -8 -3
-8 1 -21 9 -28 7 -8 12 -20 9 -28 -3 -9 0 -11 8 -6 8 5 11 4 7 -3 -10 -15 3
-43 16 -35 6 3 7 1 3 -5 -4 -7 -4 -18 1 -24 4 -7 8 -15 8 -18 3 -23 18 -49 26
-45 5 3 6 -2 2 -11 -5 -13 -3 -15 7 -9 8 5 11 4 7 -2 -9 -14 13 -74 24 -67 5
3 6 -2 3 -10 -3 -9 -1 -16 5 -16 7 0 11 -6 10 -12 -3 -27 2 -38 17 -38 8 0 12
5 9 10 -3 6 -1 10 6 10 6 0 9 8 6 20 -3 13 -1 18 6 13 7 -4 8 0 4 11 -4 10 -3
15 3 11 6 -3 11 -1 11 4 3 21 4 26 12 39 5 6 5 17 1 24 -5 7 -3 8 6 3 10 -6
12 -4 7 9 -4 10 -3 15 3 11 9 -6 14 10 13 42 -1 7 3 10 8 7 8 -5 13 9 10 29 0
4 4 7 10 7 6 0 9 9 6 20 -3 13 -1 18 6 13 7 -4 8 0 4 11 -4 10 -3 15 3 11 5
-3 12 7 16 22 4 15 11 34 17 41 5 6 6 12 1 12 -5 0 -4 4 3 8 6 4 13 16 15 27
1 11 9 26 16 33 7 8 10 18 7 23 -4 5 -1 9 5 9 7 0 10 7 6 15 -3 8 -1 15 5 15
6 0 7 5 4 10 -3 6 -1 10 5 10 6 0 8 5 5 10 -3 6 -1 10 6 10 6 0 9 8 6 20 -3
11 -1 18 4 14 5 -3 9 0 9 6 0 6 -16 10 -40 8 -22 -1 -40 -6 -40 -10 0 -19 -2
-24 -16 -46 -8 -12 -12 -28 -8 -34 5 -7 3 -8 -6 -3 -10 6 -12 3 -8 -13 4 -12
2 -20 -3 -16 -8 5 -13 -9 -10 -28 0 -5 -3 -8 -9 -8 -5 0 -10 -8 -10 -18 0 -10
-7 -28 -16 -40 -8 -12 -12 -27 -8 -34 4 -6 3 -8 -3 -5 -10 6 -29 -37 -25 -55
1 -5 -3 -8 -9 -8 -6 0 -9 -7 -5 -15 3 -8 2 -15 -3 -15 -5 0 -12 -10 -16 -22
-4 -13 -8 -26 -10 -30 -6 -19 -7 -23 -6 -30 0 -5 -3 -8 -9 -8 -5 0 -10 5 -10
11 0 5 -4 8 -9 5 -5 -4 -7 4 -3 16 3 14 1 19 -6 14 -8 -5 -10 -2 -6 8 4 10 1
16 -7 16 -7 0 -10 3 -6 6 3 4 -2 23 -12 43 -10 20 -21 49 -25 64 -4 15 -11 25
-16 22 -6 -3 -7 1 -4 9 3 9 1 16 -5 16 -6 0 -11 11 -11 25 0 14 -5 25 -11 25
-5 0 -8 4 -4 9 3 5 0 15 -7 23 -7 7 -15 22 -16 33 -2 11 -8 22 -13 23 -5 2 -7
8 -3 13 3 5 0 9 -6 9 -6 0 -8 4 -5 10 3 5 2 17 -3 26 -7 12 -10 13 -19 2 -18
-24 -43 -99 -37 -110 5 -7 2 -8 -6 -3 -10 6 -12 4 -7 -9 4 -9 3 -15 -2 -12
-11 7 -33 -52 -25 -65 3 -5 -2 -12 -11 -15 -9 -4 -14 -12 -11 -20 3 -7 2 -14
-2 -16 -13 -6 -39 -63 -37 -81 2 -9 0 -15 -5 -12 -11 7 -22 -24 -13 -37 4 -7
1 -8 -7 -3 -10 6 -12 3 -7 -14 3 -13 3 -20 0 -17 -3 3 -12 -2 -20 -12 -7 -9
-13 -12 -12 -7 4 28 -2 55 -11 50 -6 -3 -7 1 -4 9 3 9 1 16 -5 16 -6 0 -10 3
-9 8 4 13 -25 81 -33 76 -4 -2 -5 6 -1 18 4 16 2 19 -8 13 -8 -5 -11 -4 -7 3
10 15 -3 43 -16 35 -6 -3 -7 -1 -3 6 4 6 2 18 -4 26 -7 8 -9 15 -5 15 4 0 0
11 -9 25 -9 13 -16 31 -16 40 0 9 -4 13 -10 10 -6 -3 -7 1 -4 9 3 9 1 16 -6
16 -6 0 -8 5 -5 10 3 6 1 10 -4 10 -6 0 -10 3 -10 8 5 30 -3 38 -41 40 -24 2
-40 -2 -40 -8z"/>
<path d="M3166 10564 c7 -3 10 -14 7 -24 -3 -12 0 -20 6 -20 7 0 9 -4 6 -10
-3 -5 -1 -10 4 -10 6 0 10 -3 10 -7 -1 -8 0 -12 6 -30 2 -5 6 -18 10 -30 4
-13 11 -20 16 -17 5 3 6 -1 3 -9 -3 -8 0 -18 5 -22 6 -3 9 -11 6 -16 -4 -5 -1
-9 4 -9 6 0 10 -3 10 -7 -3 -20 2 -34 10 -29 5 4 7 -3 4 -14 -3 -11 0 -20 6
-20 6 0 10 -3 10 -7 -3 -20 2 -34 10 -29 5 4 7 -4 3 -16 -4 -16 -2 -19 8 -13
8 5 11 4 7 -3 -10 -15 3 -43 16 -35 6 3 7 1 3 -6 -9 -15 3 -53 15 -46 5 3 6 0
3 -8 -3 -8 -1 -18 5 -22 6 -3 11 -15 11 -26 0 -10 5 -19 11 -19 5 0 7 -4 4
-10 -3 -5 -1 -10 4 -10 6 0 10 -3 9 -7 -3 -16 15 -63 24 -63 5 0 7 4 3 9 -3 5
0 13 6 16 5 4 8 13 5 21 -3 8 1 17 10 21 8 3 13 12 10 20 -3 8 -2 12 3 9 8 -5
38 72 33 87 -1 5 2 6 8 2 5 -3 11 -1 11 4 3 21 4 26 12 39 5 6 5 17 1 24 -4 7
-3 8 4 4 11 -6 16 6 13 27 0 4 4 7 10 7 6 0 9 9 6 20 -3 11 -1 18 4 14 8 -5
13 9 10 29 0 4 4 7 10 7 6 0 8 7 5 16 -4 10 -2 13 6 8 8 -5 9 -2 5 9 -4 10 -2
17 4 17 6 0 8 8 5 18 -6 16 -5 16 7 0 8 -10 16 -15 19 -12 3 2 5 -3 5 -13 -1
-27 28 -84 38 -76 4 5 5 2 1 -5 -8 -14 14 -72 27 -72 5 0 5 -4 2 -10 -3 -5 -1
-10 5 -10 6 0 9 -4 6 -9 -8 -13 4 -42 15 -35 5 3 6 -3 2 -12 -4 -10 -2 -15 3
-11 5 3 11 -6 12 -21 1 -14 5 -28 10 -31 4 -3 8 -13 10 -21 2 -8 8 -17 13 -18
5 -2 7 -8 3 -13 -3 -5 -1 -9 5 -9 6 0 8 -7 5 -15 -4 -8 -1 -15 6 -15 6 0 8 -4
5 -10 -3 -5 1 -10 10 -10 11 0 15 5 11 16 -4 10 -2 13 6 8 7 -5 9 0 6 14 -4
13 0 23 9 26 9 4 13 13 9 22 -4 10 -2 13 6 8 7 -5 9 0 6 14 -4 12 -3 20 2 17
11 -7 22 24 13 37 -3 6 -1 8 5 4 12 -7 26 29 17 44 -3 6 1 13 9 16 9 3 13 10
10 15 -3 5 0 9 6 9 6 0 9 4 5 9 -3 5 0 13 6 16 5 4 8 14 5 22 -3 8 -2 11 3 8
12 -7 24 31 15 46 -4 8 -3 9 4 5 11 -6 16 6 13 27 0 4 4 7 10 7 6 0 9 9 6 20
-3 11 -1 18 4 14 9 -5 13 9 10 35 -2 7 2 10 7 7 9 -5 27 39 24 57 -1 4 3 7 9
7 6 0 8 7 5 16 -3 8 -2 12 4 9 9 -5 12 5 9 33 0 4 -13 8 -29 9 -32 3 -57 -27
-44 -50 4 -6 4 -9 -1 -5 -11 11 -37 -42 -30 -61 3 -8 3 -12 -1 -8 -10 10 -36
-44 -29 -62 3 -8 3 -12 -1 -9 -9 10 -45 -64 -39 -80 3 -7 1 -11 -4 -8 -11 7
-23 -22 -14 -36 3 -7 1 -8 -5 -4 -11 6 -17 -12 -13 -36 0 -5 -4 -8 -10 -8 -6
0 -9 -7 -5 -15 3 -8 1 -15 -4 -15 -6 0 -10 -6 -10 -14 0 -7 -7 -19 -15 -26
-13 -11 -14 -10 -10 3 4 8 2 18 -4 22 -6 3 -11 14 -11 25 0 10 -7 20 -15 24
-8 3 -12 12 -9 21 4 9 -1 24 -10 34 -9 10 -13 21 -9 24 3 4 1 7 -5 7 -6 0 -9
7 -6 15 4 8 1 15 -6 15 -6 0 -9 4 -5 9 3 5 -1 16 -9 24 -8 8 -12 17 -9 21 4 3
1 6 -5 6 -6 0 -9 7 -5 17 4 11 3 14 -5 9 -8 -4 -10 -2 -6 7 3 8 1 18 -5 22 -6
3 -11 14 -11 25 0 10 -7 20 -15 24 -8 3 -12 12 -9 21 3 8 1 15 -5 15 -6 0 -8
6 -5 13 3 8 -2 20 -11 27 -10 8 -15 9 -16 1 -2 -20 -5 -26 -17 -47 -6 -12 -8
-24 -5 -28 3 -3 1 -6 -6 -6 -8 0 -11 -8 -8 -20 3 -11 2 -18 -3 -15 -11 7 -22
-24 -13 -37 3 -7 1 -8 -5 -4 -8 4 -12 0 -12 -11 0 -10 -7 -28 -15 -39 -8 -12
-11 -24 -8 -28 3 -3 1 -6 -6 -6 -7 0 -11 -6 -9 -12 3 -7 -1 -19 -9 -26 -7 -8
-11 -18 -8 -23 4 -5 1 -9 -5 -9 -7 0 -10 -7 -6 -15 3 -8 1 -15 -5 -15 -6 0 -8
-7 -5 -15 3 -9 -1 -18 -10 -22 -9 -3 -14 -13 -11 -24 3 -12 1 -17 -6 -12 -7 4
-8 0 -3 -12 5 -15 4 -16 -9 -5 -8 7 -15 21 -15 31 0 11 -5 19 -11 19 -5 0 -7
5 -4 10 3 6 1 10 -4 10 -6 0 -10 3 -9 8 4 16 -26 81 -35 75 -6 -3 -7 -1 -3 6
9 15 -3 53 -15 46 -5 -3 -6 2 -2 11 4 12 3 15 -5 10 -8 -5 -10 -2 -6 8 3 9 1
16 -5 16 -6 0 -8 7 -5 15 4 8 1 15 -5 15 -6 0 -10 3 -10 8 3 17 -2 33 -8 29
-5 -3 -9 7 -10 21 0 15 -6 28 -12 30 -6 2 -9 8 -5 13 3 5 1 9 -5 9 -6 0 -8 7
-5 15 4 8 1 15 -6 15 -6 0 -9 4 -6 8 3 5 -14 9 -37 10 -23 0 -37 -2 -31 -4z"/>
<path d="M4756 10550 c3 -8 11 -27 16 -42 5 -16 14 -26 18 -23 4 3 6 -4 3 -15
-3 -11 0 -20 6 -20 6 0 11 -3 10 -7 -3 -19 14 -52 24 -46 6 3 7 1 3 -6 -10
-16 3 -53 16 -45 7 4 8 2 4 -4 -4 -6 2 -30 14 -54 11 -23 20 -47 20 -54 0 -6
7 -15 16 -18 8 -3 13 -10 10 -15 -8 -12 25 -92 35 -85 5 3 6 -2 3 -10 -3 -9
-1 -16 5 -16 6 0 8 -7 5 -15 -4 -8 -1 -15 6 -15 6 0 9 -4 6 -9 -3 -5 1 -11 9
-15 8 -3 12 -12 9 -20 -3 -8 0 -17 5 -21 6 -3 9 -11 6 -16 -4 -5 -2 -9 4 -9
13 0 24 37 15 51 -4 8 -3 9 4 5 11 -6 16 6 13 27 0 4 4 7 10 7 6 0 8 7 5 16
-3 8 -2 12 4 9 9 -5 15 15 11 38 0 4 4 7 10 7 6 0 8 7 5 16 -3 8 -2 12 4 9 6
-3 11 -1 11 4 3 21 4 26 12 39 5 6 5 12 0 12 -4 0 -3 4 2 8 16 11 36 62 29 74
-4 6 -2 8 3 5 10 -6 27 27 24 46 -1 4 4 7 10 7 6 0 9 6 7 13 -3 6 3 20 12 30
12 12 18 14 17 5 -1 -32 4 -49 13 -43 6 4 7 -1 3 -11 -5 -13 -3 -15 7 -9 8 5
11 4 7 -2 -9 -15 17 -75 28 -66 4 5 5 3 1 -4 -6 -12 10 -52 27 -64 5 -3 8 -9
6 -13 -4 -13 24 -75 32 -71 4 3 5 -5 1 -17 -3 -14 -1 -19 6 -14 8 4 10 2 6 -7
-3 -8 2 -21 10 -30 8 -8 12 -17 9 -21 -4 -3 -1 -6 6 -6 7 0 10 -4 7 -9 -9 -14
3 -38 19 -38 8 0 15 5 15 11 0 6 7 24 15 40 8 15 12 33 8 39 -3 5 -1 7 4 4 10
-6 29 37 25 56 -1 4 3 7 9 7 6 0 8 7 5 16 -4 10 -2 13 6 8 7 -5 9 0 6 13 -4
13 2 27 14 38 13 10 18 24 15 37 -3 11 -3 17 0 14 8 -8 34 44 28 54 -3 5 0 10
5 12 6 2 12 13 13 25 0 12 5 19 9 17 7 -5 12 21 6 29 -2 2 5 11 15 21 9 10 15
22 12 27 -4 5 -1 9 5 9 7 0 10 7 6 15 -3 8 -2 15 2 15 5 0 14 17 22 38 8 20
16 40 18 43 1 3 -16 6 -38 6 -22 0 -40 -3 -41 -6 -4 -33 -11 -56 -19 -61 -10
-6 -20 -39 -22 -67 -1 -7 -5 -10 -10 -7 -4 3 -9 0 -9 -5 -3 -21 -5 -27 -27
-73 -13 -26 -20 -53 -16 -59 5 -8 3 -9 -6 -4 -10 6 -12 4 -7 -9 4 -9 3 -14 -2
-11 -12 7 -24 -31 -15 -46 4 -8 3 -9 -4 -5 -11 6 -16 -6 -13 -26 0 -5 -4 -8
-10 -8 -5 0 -8 -4 -4 -9 3 -5 1 -12 -5 -16 -6 -4 -8 -11 -5 -16 4 -5 -1 -9 -9
-9 -9 0 -15 3 -15 8 4 21 -3 42 -16 56 -9 8 -15 17 -14 18 6 9 -26 76 -35 71
-5 -4 -7 1 -3 11 7 18 -10 56 -31 69 -7 5 -10 12 -7 18 9 13 -5 50 -16 44 -5
-3 -6 2 -2 11 4 11 3 15 -4 11 -7 -5 -9 1 -5 15 3 14 1 19 -6 14 -8 -4 -10 -2
-6 7 3 8 -2 21 -10 30 -8 8 -13 17 -10 20 3 3 1 13 -4 23 -9 16 -11 15 -21 -5
-7 -12 -9 -27 -5 -33 4 -7 3 -8 -4 -4 -11 6 -16 -6 -13 -26 0 -5 -4 -8 -10 -8
-6 0 -9 -9 -6 -20 3 -13 1 -18 -6 -13 -7 4 -8 0 -4 -11 4 -9 3 -15 -2 -12 -10
7 -33 -49 -24 -58 4 -3 1 -6 -5 -6 -7 0 -12 -5 -12 -10 0 -6 -9 -29 -20 -52
-11 -22 -17 -45 -13 -51 4 -6 1 -7 -7 -2 -10 6 -12 4 -7 -8 3 -10 3 -17 -1
-17 -8 0 -33 -51 -36 -75 -4 -29 -13 -24 -26 15 -7 21 -17 37 -21 34 -5 -3 -6
2 -3 10 3 9 1 16 -6 16 -6 0 -9 4 -6 9 8 13 -4 42 -15 35 -5 -3 -6 3 -2 12 4
11 3 15 -4 11 -7 -5 -9 1 -5 15 4 16 2 19 -8 13 -8 -5 -11 -4 -7 3 9 14 -3 43
-14 36 -5 -3 -6 3 -2 12 4 11 3 15 -4 11 -7 -5 -9 1 -5 15 3 14 1 19 -6 14 -8
-5 -10 -2 -6 8 3 9 2 16 -3 16 -5 0 -10 10 -10 22 -1 13 -7 24 -13 26 -5 2 -8
8 -4 13 3 5 0 9 -6 9 -6 0 -8 5 -5 10 3 6 2 10 -4 10 -6 0 -8 7 -5 15 4 8 1
15 -6 15 -6 0 -9 4 -5 9 3 6 -12 9 -35 8 -32 -1 -39 -4 -34 -17z"/>
<path d="M7384 10271 l1 -296 36 0 36 -1 -1 296 -1 295 -36 1 -36 2 1 -297z"/>
<path d="M18224 10231 c0 -200 -3 -337 -8 -334 -5 4 -7 -12 -3 -36 3 -24 3
-40 0 -37 -3 3 -15 0 -26 -5 -27 -15 -76 -18 -81 -5 -3 6 -4 -6 -3 -27 1 -34
4 -38 24 -34 12 2 20 1 18 -3 -2 -4 11 -7 30 -8 19 -1 35 3 35 8 0 6 3 9 8 8
4 -1 17 1 29 6 15 5 20 12 16 23 -4 10 -2 14 4 10 6 -4 13 -1 16 6 2 6 4 181
4 388 l0 376 -32 1 -32 1 1 -338z"/>
<path d="M13363 10274 l-1 -32 148 0 148 0 -1 32 -1 33 -146 0 -146 0 -1 -33z"/>
<path d="M6480 10077 c0 -4 -4 -5 -10 -2 -9 6 -14 -8 -11 -27 0 -5 -4 -8 -9
-8 -6 0 -9 -12 -6 -27 2 -16 5 -32 5 -37 1 -4 8 -5 17 -2 8 3 13 2 10 -3 -3
-5 3 -11 14 -14 11 -3 20 -1 20 4 0 4 7 5 17 2 12 -5 14 -3 8 7 -6 10 -4 12 8
7 13 -5 18 2 23 30 5 25 3 38 -5 41 -6 2 -9 8 -6 12 3 5 -3 13 -13 19 -22 12
-62 11 -62 -2z"/>
<path d="M22948 10083 c-16 -4 -22 -15 -19 -35 0 -5 -3 -8 -9 -8 -21 0 -9 -49
16 -69 27 -22 50 -28 40 -12 -4 5 4 7 16 3 14 -3 19 -1 14 6 -5 8 -2 10 8 6
11 -4 16 0 16 13 0 10 5 24 12 31 9 9 9 12 -1 12 -7 0 -10 4 -7 9 3 4 0 16 -8
26 -13 17 -46 25 -78 18z"/>
</g>
</svg>
